<?xml version="1.0" standalone="no"?>
<!DOCTYPE svg PUBLIC "-//W3C//DTD SVG 1.1//EN" "http://www.w3.org/Graphics/SVG/1.1/DTD/svg11.dtd" >
<svg xmlns="http://www.w3.org/2000/svg" xmlns:xlink="http://www.w3.org/1999/xlink" version="1.1">
<metadata>
Created by FontForge 20161116 at Fri Jan  9 21:49:34 2004
 By Jimmy Wärting
\(c\) 1993-2003 PARACHUTE FONTS. All rights reserved. Designed by Panos Vassiliou. {www.parachute.gr}
</metadata>
<defs>
<font id="PFBodoniText-Italic" horiz-adv-x="500" >
  <font-face 
    font-family="PF BodoniText"
    font-weight="400"
    font-style="italic"
    font-stretch="normal"
    units-per-em="1000"
    panose-1="2 0 6 6 8 0 0 9 0 4"
    ascent="720"
    descent="-280"
    x-height="405"
    cap-height="650"
    bbox="-167 -246 981 870"
    underline-thickness="40"
    underline-position="-120"
    slope="-11"
    unicode-range="U+0020-E000"
  />
<missing-glyph horiz-adv-x="1000" 
 />
    <glyph glyph-name=".notdef" horiz-adv-x="1000" 
 />
    <glyph glyph-name="space" unicode=" " horiz-adv-x="255" 
 />
    <glyph glyph-name="space" unicode="&#xa0;" horiz-adv-x="255" 
 />
    <glyph glyph-name="exclam" unicode="!" horiz-adv-x="234" 
d="M289 563c16 40 49 132 -12 132c-69 0 -78 -92 -83 -132c-19 -163 -29 -231 -61 -396h25c27 88 88 281 131 396zM64 42c0 -28 22 -50 50 -50s50 22 50 50s-22 50 -50 50s-50 -22 -50 -50z" />
    <glyph glyph-name="quotedbl" unicode="&#x22;" horiz-adv-x="334" 
d="M187 442l72 197c11 27 7 48 -21 48c-32 0 -44 -24 -48 -52l-25 -193h22zM304 442l72 197c11 27 7 48 -21 48c-32 0 -45 -24 -48 -52l-26 -193h23z" />
    <glyph glyph-name="numbersign" unicode="#" horiz-adv-x="611" 
d="M613 373h-149l-43 -113h144l-11 -45h-149l-83 -215h-45l82 215h-113l-83 -215h-47l82 215h-140l11 45h146l43 113h-139l11 46h146l78 201h48l-78 -201h112l79 201h45l-77 -201h141zM419 373h-114l-43 -113h113z" />
    <glyph glyph-name="dollar" unicode="$" horiz-adv-x="441" 
d="M476 533c0 -44 -35 -58 -51 -58c-23 0 -42 10 -42 34c0 34 38 36 38 58c0 23 -23 31 -48 35l-57 -232c63 -24 113 -56 113 -142c0 -106 -88 -215 -205 -234l-17 -69h-28l16 65h-12h-14c-5 0 -9 0 -13 1l-17 -66h-28l17 69c-90 19 -95 88 -95 102c0 44 34 58 50 58
c23 0 43 -10 43 -34c0 -34 -39 -36 -39 -58c0 -20 24 -36 49 -41l64 269c-51 23 -94 59 -94 115c0 103 82 201 177 225l16 64h28l-14 -59c3 1 7 1 10 1h10h19l15 58h28l-15 -61c88 -16 96 -87 96 -100zM345 605c-7 0 -13 1 -18 1c-7 0 -14 -1 -22 -2l-52 -214l10 -3
c9 -3 18 -6 26 -9zM275 597c-56 -19 -105 -77 -105 -130c0 -37 24 -55 57 -68zM366 171c0 51 -36 74 -77 89l-56 -236c67 16 133 64 133 147zM263 269c-11 3 -20 5 -28 8l-9 3l-62 -261c8 -3 15 0 20 0h9c3 0 7 0 10 1z" />
    <glyph glyph-name="percent" unicode="%" horiz-adv-x="670" 
d="M611 620l-435 -620h-38l437 620h36zM284 606c-73 0 -113 -137 -113 -201c0 -43 29 -58 50 -58c76 0 112 130 112 194c0 53 -25 65 -49 65zM290 630c68 0 97 -52 97 -112c0 -89 -77 -196 -172 -196c-67 0 -99 55 -99 108c0 84 74 200 174 200zM530 274
c-73 0 -112 -135 -112 -200c0 -43 28 -58 49 -58c76 0 113 130 113 194c0 53 -26 64 -50 64zM536 299c68 0 97 -52 97 -112c0 -89 -76 -196 -172 -196c-67 0 -99 55 -99 108c0 84 74 200 174 200z" />
    <glyph glyph-name="ampersand" unicode="&#x26;" horiz-adv-x="694" 
d="M398 142c19 -38 64 -125 131 -125c33 0 81 33 116 68l16 -13c-49 -49 -91 -85 -158 -85c-98 0 -133 63 -162 98c-67 -57 -134 -99 -214 -99c-71 0 -121 36 -121 104c0 113 123 184 212 227c-7 20 -16 61 -16 88c0 88 52 201 152 201c49 0 82 -38 82 -89
c0 -75 -83 -137 -128 -171c20 -67 45 -122 76 -182c35 43 66 84 101 131c50 68 98 81 128 81c33 0 55 -19 55 -46c0 -35 -25 -60 -57 -60c-52 0 -20 48 -35 56c-21 11 -67 -42 -80 -61c-37 -45 -61 -75 -98 -123zM397 509c0 35 -14 69 -53 69c-35 0 -63 -28 -72 -63
c-11 -43 15 -105 26 -144c43 29 99 78 99 138zM323 106c-43 56 -72 118 -99 186c-64 -37 -134 -85 -134 -166c0 -60 40 -88 92 -89c52 0 98 30 141 69z" />
    <glyph glyph-name="quotesingle" unicode="'" horiz-adv-x="222" 
d="M187 442l72 197c11 27 7 48 -21 48c-32 0 -44 -24 -48 -52l-25 -193h22z" />
    <glyph glyph-name="parenleft" unicode="(" horiz-adv-x="386" 
d="M432 643l-10 17c-202 -117 -357 -332 -357 -566c0 -121 43 -241 143 -306l15 15c-64 56 -91 125 -91 213c0 231 99 501 300 627z" />
    <glyph glyph-name="parenright" unicode=")" horiz-adv-x="386" 
d="M-24 -197l8 -15c197 96 356 342 356 562c0 125 -51 234 -144 310l-17 -17c64 -57 93 -132 93 -223c0 -230 -100 -498 -296 -617z" />
    <glyph glyph-name="asterisk" unicode="*" horiz-adv-x="386" 
d="M262 502c11 46 -7 88 -2 112c5 23 23 38 46 38c25 0 34 -12 28 -37c-5 -26 -43 -65 -56 -113c42 24 83 75 109 85c16 6 28 3 36 -10c11 -16 5 -38 -15 -53c-32 -24 -79 -7 -125 -37c31 -23 91 -14 107 -35c13 -15 7 -40 -12 -56c-9 -7 -18 -11 -25 -11s-14 3 -20 8
c-23 18 -38 67 -62 80c-11 -46 9 -82 1 -114c-7 -23 -25 -36 -46 -36c-23 0 -35 14 -28 37c5 29 45 64 56 114c-46 -24 -68 -64 -102 -82c-18 -9 -32 -8 -43 5c-11 16 -4 41 16 56c34 23 80 4 125 36c-35 27 -87 10 -108 34c-11 15 -8 32 3 47c12 15 31 25 48 17
c25 -11 32 -61 69 -85z" />
    <glyph glyph-name="plus" unicode="+" horiz-adv-x="539" 
d="M269 269c7 21 13 45 21 78c9 39 20 87 29 126h54c-8 -28 -16 -60 -23 -89c-11 -39 -18 -74 -27 -113c27 -3 69 -1 112 -1h38c13 0 26 0 39 1l-14 -55c-25 1 -60 0 -101 0c-29 0 -64 1 -87 0c-3 -11 -7 -26 -10 -38c-11 -39 -20 -81 -29 -118c-4 -19 -8 -34 -11 -47h-54
c3 9 8 27 12 39c15 53 27 115 38 164c-9 -1 -21 -1 -35 -1h-48h-57c-19 0 -36 0 -49 1l14 55c65 -3 111 -3 168 -2h20z" />
    <glyph glyph-name="comma" unicode="," horiz-adv-x="201" 
d="M-14 -113l14 -18c56 32 134 96 134 165c0 41 -21 62 -62 62c-32 0 -54 -29 -54 -60c0 -19 9 -36 32 -36c8 0 11 0 19 7c7 7 21 5 17 -11c-8 -32 -35 -64 -100 -109z" />
    <glyph glyph-name="hyphen" unicode="-" horiz-adv-x="348" 
d="M309 212l15 61c-13 -1 -36 0 -69 0h-22h-16h-17h-26h-21h-30c-21 0 -42 1 -51 1l-15 -62c23 0 57 1 94 1h58h58c16 0 27 -1 42 -1z" />
    <glyph glyph-name="period" unicode="." horiz-adv-x="239" 
d="M49 42c0 -28 22 -50 50 -50s50 22 50 50s-22 50 -50 50s-50 -22 -50 -50z" />
    <glyph glyph-name="slash" unicode="/" horiz-adv-x="423" 
d="M15 -56l533 743h-44l-535 -743h46z" />
    <glyph glyph-name="zero" unicode="0" 
d="M346 603c36 0 83 -16 83 -115c0 -124 -71 -470 -206 -470c-35 0 -83 18 -83 131c0 119 80 454 206 454zM363 633c-186 0 -308 -275 -308 -441c0 -112 46 -206 150 -206c193 0 309 278 309 447c0 112 -49 200 -151 200z" />
    <glyph glyph-name="one" unicode="1" 
d="M349 0l-137 2l-133 -2l9 28l94 1c21 88 76 297 108 424c11 43 22 99 29 131l-108 -15l2 24c50 8 146 35 191 46l10 -10c-24 -100 -68 -274 -102 -414c-19 -77 -33 -137 -44 -186l92 2z" />
    <glyph glyph-name="two" unicode="2" 
d="M455 196h-23c-45 -95 -78 -117 -125 -117h-53l-170 -2c27 16 129 95 150 111c103 71 265 172 265 315c0 80 -68 131 -160 131c-100 0 -227 -69 -227 -181c0 -31 17 -56 56 -56c35 0 65 23 65 68c0 12 -5 21 -16 28c-22 14 -65 -5 -41 38c15 28 84 71 149 71
c51 0 80 -40 80 -91c0 -128 -118 -232 -206 -304c-76 -61 -147 -116 -222 -187l1 -21c36 3 72 5 107 5h108c67 0 132 -2 196 -7c14 38 39 148 66 199z" />
    <glyph glyph-name="three" unicode="3" 
d="M324 350c76 -11 120 -58 120 -130c0 -139 -154 -234 -278 -234c-113 0 -150 53 -150 98c0 41 32 83 76 83c20 0 40 -21 40 -44c0 -25 -27 -35 -38 -38c-14 -2 -29 -3 -33 -18c-8 -36 65 -55 95 -55c111 0 193 106 193 211c0 39 -13 69 -42 85c-24 13 -56 13 -87 8
c-16 -3 -40 -11 -53 -18l-2 28c23 8 39 12 54 16c72 19 189 71 189 172c0 53 -46 90 -102 90c-20 0 -84 -12 -92 -39c-5 -22 25 -5 25 -47c0 -23 -18 -44 -57 -44c-25 0 -39 15 -39 35c0 85 123 125 198 125c71 0 147 -33 147 -104c0 -93 -85 -151 -164 -180z" />
    <glyph glyph-name="four" unicode="4" 
d="M417 432c-16 -58 -32 -125 -37 -154l107 1l-24 -69h-98l-44 -181l87 2l-5 -31h-89l-74 1l-81 -1l8 28l80 1l45 181h-71h-48c-43 0 -76 0 -132 -4l-8 15c29 32 65 69 104 110c41 43 85 90 126 133c45 47 86 89 122 125c24 23 44 44 63 61l22 -13
c-20 -77 -36 -137 -53 -205zM123 273h100l85 2c4 15 9 29 14 49c9 35 19 80 27 117c3 13 16 68 24 97c-23 -23 -51 -53 -74 -78c-35 -36 -71 -76 -102 -109c-28 -29 -51 -51 -74 -78z" />
    <glyph glyph-name="five" unicode="5" 
d="M163 335c13 13 74 42 139 42c88 0 159 -59 159 -146c0 -13 -2 -26 -6 -39c-32 -132 -159 -206 -275 -206c-112 0 -150 54 -150 98c0 40 34 85 77 85c23 0 39 -10 39 -35c0 -13 -13 -36 -25 -43c-19 -11 -41 -3 -46 -24c-8 -36 66 -55 95 -55c98 0 167 78 189 170
c5 19 7 36 7 51c0 64 -33 105 -92 105c-64 0 -124 -40 -139 -55l-22 7c34 66 87 202 87 315c21 11 64 21 105 21c72 0 120 -18 157 -18c21 0 25 12 28 23h22c-1 -8 -3 -14 -4 -21c-13 -56 -85 -72 -121 -72c-44 0 -78 14 -107 14c-17 0 -41 -5 -56 -14
c-8 -50 -30 -140 -61 -203z" />
    <glyph glyph-name="six" unicode="6" 
d="M187 339c49 51 95 67 151 67c80 0 139 -48 139 -136c0 -141 -114 -284 -263 -284c-106 0 -152 73 -152 154c0 253 216 466 453 511v-27c-163 -37 -264 -118 -328 -285zM311 380c-117 0 -163 -176 -163 -272c0 -56 18 -94 73 -94c107 0 165 176 165 268
c0 56 -19 98 -75 98z" />
    <glyph glyph-name="seven" unicode="7" 
d="M568 611c0 0 -79 -105 -92 -123l-120 -168c-40 -53 -98 -119 -109 -160c-3 -13 -5 -23 -5 -31c0 -26 7 -32 7 -54c0 -36 -31 -80 -72 -80c-39 0 -54 24 -43 69c6 25 37 72 92 141c15 23 231 307 247 331c-25 1 -51 2 -94 2c-23 0 -50 -1 -83 -1c-79 0 -99 -1 -136 -56
l-21 8c31 43 61 87 88 131l172 -3l161 3z" />
    <glyph glyph-name="eight" unicode="8" 
d="M209 -14c119 0 240 87 240 213c0 72 -58 109 -104 141c77 40 164 69 164 173c0 80 -65 121 -141 121c-107 0 -215 -75 -215 -191c0 -60 40 -102 83 -131c-85 -40 -196 -96 -196 -206c0 -83 88 -120 169 -120zM357 610c52 0 75 -43 75 -79c0 -72 -42 -145 -109 -176
c-40 29 -96 77 -96 131c0 67 61 124 130 124zM368 144c0 -78 -78 -132 -153 -132c-59 0 -94 28 -94 77c0 89 62 165 137 208c48 -32 110 -84 110 -153z" />
    <glyph glyph-name="nine" unicode="9" 
d="M389 286c-64 -167 -165 -248 -328 -285l3 -25c246 48 450 256 450 509c0 81 -46 154 -152 154c-149 0 -263 -143 -263 -284c0 -88 59 -136 139 -136c55 0 100 18 151 67zM265 245c-55 0 -75 43 -75 98c0 92 57 268 165 268c55 0 73 -38 73 -94c0 -96 -46 -272 -163 -272z
" />
    <glyph glyph-name="colon" unicode=":" horiz-adv-x="239" 
d="M49 42c0 -28 22 -50 50 -50s50 22 50 50s-22 50 -50 50s-50 -22 -50 -50zM115 312c0 -28 22 -50 50 -50s50 22 50 50s-22 50 -50 50s-50 -22 -50 -50z" />
    <glyph glyph-name="semicolon" unicode=";" horiz-adv-x="201" 
d="M-14 -113l14 -18c56 32 134 96 134 165c0 41 -21 62 -62 62c-32 0 -54 -29 -54 -60c0 -19 9 -36 32 -36c8 0 11 0 19 7c7 7 21 5 17 -11c-8 -32 -35 -64 -100 -109zM85 312c0 -28 22 -50 50 -50s50 22 50 50s-22 50 -50 50s-50 -22 -50 -50z" />
    <glyph glyph-name="semicolon" unicode="&#x37e;" horiz-adv-x="201" 
d="M-14 -113l14 -18c56 32 134 96 134 165c0 41 -21 62 -62 62c-32 0 -54 -29 -54 -60c0 -19 9 -36 32 -36c8 0 11 0 19 7c7 7 21 5 17 -11c-8 -32 -35 -64 -100 -109zM85 312c0 -28 22 -50 50 -50s50 22 50 50s-22 50 -50 50s-50 -22 -50 -50z" />
    <glyph glyph-name="less" unicode="&#x3c;" horiz-adv-x="535" 
d="M73 329l-14 -56c107 -59 303 -174 402 -233l15 62l-332 199l429 200l15 62c-134 -64 -391 -181 -515 -234z" />
    <glyph glyph-name="equal" unicode="=" horiz-adv-x="582" 
d="M585 362c-53 0 -144 1 -235 1h-134c-43 0 -80 0 -110 -1l15 61c11 -1 26 -1 45 -1c40 0 93 -1 153 -1h94c64 0 130 1 187 2zM538 169c-54 0 -144 2 -237 2h-90c-59 0 -113 -1 -152 -2l15 60c38 -1 79 -1 123 -1h132c88 0 169 1 224 1z" />
    <glyph glyph-name="greater" unicode="&#x3e;" horiz-adv-x="535" 
d="M527 273l14 56c-102 54 -302 171 -402 234l-15 -62l332 -200l-429 -199l-15 -62c133 64 390 180 515 233z" />
    <glyph glyph-name="question" unicode="?" horiz-adv-x="367" 
d="M278 322c75 56 154 116 154 219c0 75 -53 126 -132 126c-77 0 -187 -68 -187 -152c0 -27 14 -55 43 -55c33 0 53 23 53 51c0 16 -5 29 -20 32c-16 3 -21 10 -21 18c0 9 5 18 10 25c27 36 68 53 105 52c51 0 83 -32 83 -79c0 -49 -34 -82 -67 -115
c-31 -31 -112 -114 -136 -212c-8 -36 -10 -57 -14 -81h23c1 13 6 26 11 49c15 56 59 95 95 122zM99 42c0 -28 22 -50 50 -50s50 22 50 50s-22 50 -50 50s-50 -22 -50 -50z" />
    <glyph glyph-name="at" unicode="@" horiz-adv-x="817" 
d="M533 60c164 0 296 218 296 365c0 142 -112 225 -263 225c-251 0 -501 -228 -504 -481c-3 -168 123 -276 309 -276c117 0 224 48 315 136l-17 15c-95 -83 -188 -118 -291 -118c-141 0 -236 94 -236 238c0 216 194 450 420 450c127 0 236 -72 236 -202
c0 -117 -121 -324 -247 -324c-33 0 -58 25 -31 81c48 96 120 232 142 276h-53l-36 -70l-2 -1c3 49 -20 81 -71 81c-126 0 -269 -189 -269 -310c1 -48 24 -84 85 -84c62 0 122 54 151 89c-8 -43 15 -90 66 -90zM504 423c74 0 23 -129 5 -165c-16 -31 -34 -62 -57 -89
c-27 -36 -77 -77 -114 -77c-31 0 -43 17 -43 44c0 85 122 287 209 287z" />
    <glyph glyph-name="A" unicode="A" horiz-adv-x="593" 
d="M535 0l9 30l-64 -1c-11 90 -24 259 -40 412c-8 83 -15 155 -22 220h-33c-28 -53 -75 -139 -123 -227c-83 -150 -175 -312 -226 -405l-67 1l-8 -29h48h31h23h22c17 0 41 -1 81 -1l7 28l-88 1c11 23 29 53 49 89c19 36 39 76 54 103h172c3 -33 7 -73 10 -104
c3 -43 5 -69 6 -88l-78 -1l-8 -28c53 0 84 1 105 1h27h26c19 0 43 -1 87 -1zM359 249h-157c19 35 42 74 69 123c26 47 56 103 72 133c1 -39 6 -79 9 -126c3 -51 4 -105 7 -130z" />
    <glyph glyph-name="B" unicode="B" horiz-adv-x="572" 
d="M239 0c-31 0 -70 1 -117 1c-43 0 -85 -1 -126 -1l7 28l83 1c19 83 41 177 69 294c23 91 50 197 74 297h-82l8 27c15 1 32 1 50 1s41 1 69 2c55 2 109 3 162 3c77 0 150 -41 150 -121c0 -119 -88 -169 -182 -185l-1 -4c52 -5 140 -53 140 -133c0 -151 -144 -210 -304 -210
zM496 520c0 77 -58 102 -114 102c-3 0 -29 -1 -48 -2h-14c-1 0 -3 -9 -8 -28c-11 -52 -40 -164 -56 -238h51c100 5 189 56 189 166zM442 201c0 67 -42 104 -93 116c-29 7 -66 6 -101 6c-24 -100 -46 -193 -71 -293c19 0 39 2 59 2c106 0 206 60 206 169z" />
    <glyph glyph-name="C" unicode="C" horiz-adv-x="613" 
d="M508 0h24c7 27 11 57 19 90c13 56 21 90 34 137h-24c-11 -40 -28 -96 -89 -149c-24 -21 -78 -61 -149 -61c-108 0 -142 86 -142 181c0 155 87 432 268 432c56 0 110 -25 131 -72c16 -36 11 -83 4 -118h24c8 33 10 42 18 79c12 48 26 100 34 131h-24
c-15 -40 -23 -49 -50 -28c-23 19 -70 39 -141 39c-221 0 -372 -232 -369 -435c0 -135 77 -240 228 -240c56 0 105 12 142 29c28 14 67 43 62 -15z" />
    <glyph glyph-name="D" unicode="D" horiz-adv-x="648" 
d="M267 -1c-18 0 -125 4 -144 4c-54 0 -78 -3 -126 -3l7 27l84 2c37 149 62 248 99 396c5 22 26 113 47 195l-85 1l8 29c52 0 62 -2 92 -2h41c8 0 87 3 95 3c156 0 280 -73 280 -238c0 -268 -172 -414 -398 -414zM559 425c0 163 -121 197 -189 197h-9c-7 0 -14 -2 -38 -2
c-27 -109 -61 -233 -82 -324c-27 -107 -39 -179 -63 -267c6 -1 13 -1 21 -1h24c16 0 30 1 37 1c182 0 299 221 299 396z" />
    <glyph glyph-name="E" unicode="E" horiz-adv-x="572" 
d="M552 193c-21 -69 -42 -124 -59 -195c-124 8 -244 3 -368 3c-52 1 -99 1 -130 -2l8 28l85 2c15 59 36 154 65 271c19 76 36 151 55 224c8 32 18 69 25 96l-86 1l7 29c23 -1 46 -2 68 -2c23 0 46 0 69 1c113 1 223 -2 338 5c-17 -60 -27 -120 -40 -180h-25c3 41 1 80 -8 96
c-21 39 -76 51 -165 50l-68 -1c-35 -134 -21 -93 -65 -265h31c88 0 107 33 134 116h24c-13 -43 -24 -85 -35 -128c-12 -47 -22 -90 -31 -137h-25c11 88 24 120 -72 120h-34l-21 -94l-50 -202h102c136 0 201 31 244 164h27z" />
    <glyph glyph-name="F" unicode="F" horiz-adv-x="517" 
d="M564 474h25l21 101c5 25 11 51 19 79c-51 -3 -113 -3 -174 -4c-29 -1 -57 -1 -85 -1h-84c-23 -1 -47 -1 -70 -1s-46 1 -69 2l-7 -27l93 -3c-4 -19 -11 -40 -16 -61c-17 -65 -34 -138 -49 -198c-37 -149 -64 -264 -80 -332l-93 -2l-7 -27c100 0 191 3 291 0l7 31l-107 -2
c21 85 12 47 36 154c7 29 22 89 35 142h34c30 0 56 6 71 -20c17 -25 4 -68 1 -100h25c11 51 29 124 32 140c21 82 23 93 34 125h-24c-11 -33 -20 -69 -51 -94c-27 -23 -54 -22 -83 -22h-31c24 90 29 121 37 150c5 26 12 50 28 115l68 1c89 1 144 -11 165 -50
c7 -12 10 -26 10 -42c0 -15 -1 -33 -2 -54z" />
    <glyph glyph-name="G" unicode="G" horiz-adv-x="675" 
d="M656 229l-64 2l-28 -117c-61 -85 -178 -128 -266 -128c-137 0 -226 96 -226 233c0 211 147 442 379 442c65 0 117 -20 140 -39c25 -21 31 -20 50 28h24c-13 -47 -28 -105 -40 -154c-7 -31 -11 -46 -15 -65h-24c9 43 18 83 -1 126c-24 52 -81 72 -137 72
c-196 0 -267 -292 -267 -452c0 -86 32 -161 132 -161c75 0 145 52 163 134l19 81l-84 2l9 33c14 -1 32 -1 53 -1h70c43 0 86 -3 121 -2z" />
    <glyph glyph-name="H" unicode="H" horiz-adv-x="724" 
d="M658 0c-91 2 -182 2 -275 0l8 28l96 1c11 40 22 84 35 137c12 51 26 108 34 148c-103 -2 -206 -2 -309 0c-8 -36 -19 -81 -31 -130c-15 -59 -30 -119 -38 -155l95 3l-7 -30h-139c-46 0 -92 -1 -139 -2l7 27l93 2c9 35 20 82 35 141c13 52 32 126 48 191
c21 85 41 171 62 259l-93 2l7 28c93 -2 185 -2 278 0l-8 -32l-95 2c-11 -43 -23 -90 -34 -137c-13 -52 -24 -100 -32 -135c49 0 98 -1 147 0c55 0 107 1 162 0c9 35 21 82 33 130c12 51 24 102 33 142l-97 1l9 29c91 -2 182 -2 274 0l-7 -31l-92 1c-9 -32 -15 -67 -24 -104
c-13 -56 -29 -116 -44 -180c-27 -109 -58 -223 -77 -307l93 1z" />
    <glyph glyph-name="I" unicode="I" horiz-adv-x="329" 
d="M265 0l8 27l-96 2c9 36 23 96 38 155c12 49 23 94 32 130l75 306l94 -2l8 32c-93 -2 -186 -2 -277 0l-7 -28l92 -2c-21 -88 -41 -174 -61 -259c-16 -65 -35 -139 -48 -191c-15 -59 -26 -106 -35 -141l-92 2l-8 -31c93 3 184 0 277 0z" />
    <glyph glyph-name="J" unicode="J" horiz-adv-x="441" 
d="M438 620h95l7 30c-93 -2 -185 -2 -277 0l-8 -30h90c-8 -37 -34 -146 -42 -183c-15 -63 -29 -123 -44 -186c-8 -26 -25 -109 -44 -173c-16 -53 -39 -160 -106 -160c-12 0 -39 4 -34 24c5 16 29 36 29 66c0 25 -18 37 -45 37c-40 0 -66 -38 -66 -75c0 -43 34 -82 103 -82
c136 0 189 106 219 230l78 319z" />
    <glyph glyph-name="K" unicode="K" horiz-adv-x="667" 
d="M618 0c-20 1 -43 1 -69 1h-76c-49 0 -98 -1 -123 -1h-20l8 29h85l-176 290l-65 -290l90 2l-7 -31c-25 1 -53 1 -85 1h-90c-28 0 -62 0 -101 -1l9 28l90 1c19 73 42 182 73 307c21 85 46 178 66 262c3 7 5 15 6 22h-93l9 30c93 0 185 -3 280 0l-7 -30h-95l-76 -284
c20 18 87 77 147 129c41 36 72 62 116 101c40 35 31 54 -4 54h-38l7 30c74 -2 93 -3 113 -3s41 1 113 3l-7 -30h-12c-29 0 -76 -1 -123 -43l-236 -211l211 -337h87z" />
    <glyph glyph-name="L" unicode="L" horiz-adv-x="572" 
d="M555 198h-27c-42 -135 -109 -169 -247 -169h-101c16 64 14 64 30 128c19 75 55 213 71 288c15 59 32 116 45 175l97 2l8 28c-92 0 -183 -5 -276 0l-9 -27l87 -3c-8 -39 -24 -95 -43 -175c-16 -63 -20 -82 -36 -145c-29 -117 -50 -212 -65 -271h-83l-10 -30
c112 7 218 1 329 2c57 1 101 -1 170 -2c10 42 16 58 29 103c12 39 24 73 31 96z" />
    <glyph glyph-name="M" unicode="M" horiz-adv-x="780" 
d="M713 0c-82 0 -111 2 -139 2c-16 0 -36 -1 -68 -1c-15 0 -36 0 -61 -1l7 27l89 2l37 148c20 76 43 162 62 242c15 61 31 139 46 200c-40 -68 -281 -476 -360 -619h-19c-4 68 -12 153 -19 264c-4 67 -8 142 -12 210c-4 57 -8 104 -11 144c-20 -80 -50 -205 -75 -308
c-17 -71 -29 -118 -46 -186c-5 -21 -8 -37 -8 -50c0 -39 24 -45 62 -45h25l-7 -29c-86 0 -90 3 -131 3c-20 0 -49 0 -102 -3l8 29h22c41 0 63 6 81 45c12 25 15 42 23 75c19 83 84 334 117 471l-94 1l9 29c40 -1 64 -2 80 -2h23c21 0 44 2 106 2c3 -79 5 -140 10 -212
c7 -92 15 -191 22 -275c91 157 182 311 281 487c56 0 75 -2 95 -2h23c17 0 41 1 82 2l-8 -29l-88 -1c-7 -27 -13 -59 -20 -84c-27 -109 -46 -191 -65 -266c-19 -74 -31 -127 -60 -241l92 3z" />
    <glyph glyph-name="N" unicode="N" horiz-adv-x="686" 
d="M784 620h-24c-52 0 -79 -10 -100 -94c-35 -139 -99 -389 -129 -526h-39c-29 72 -64 163 -108 272c-25 64 -42 118 -67 182c-19 46 -45 103 -58 137c-12 -45 -26 -113 -41 -169c-29 -117 -57 -227 -74 -298c-5 -21 -7 -37 -7 -50c0 -39 22 -45 61 -45h26l-8 -29l-125 2
l-108 -2l8 29h22c41 0 63 6 81 45c18 37 18 55 39 140c20 81 50 205 76 309c9 36 15 61 18 75c4 15 -3 22 -22 22c-18 0 -41 0 -70 1l8 29c40 -1 74 -2 106 -2c33 0 64 1 99 2c28 -76 49 -131 72 -194c20 -51 40 -109 63 -165c16 -43 35 -88 54 -137c27 105 90 372 90 372
c5 21 8 37 8 49c0 39 -20 45 -60 45h-23l8 30l117 -3l115 3z" />
    <glyph glyph-name="O" unicode="O" horiz-adv-x="652" 
d="M284 -15c-136 0 -211 111 -211 244c0 195 168 432 376 432c136 0 210 -108 210 -239c0 -195 -169 -437 -375 -437zM556 472c0 95 -37 157 -125 157c-177 0 -255 -305 -255 -453c0 -88 35 -157 126 -157c172 0 254 301 254 453z" />
    <glyph glyph-name="P" unicode="P" horiz-adv-x="517" 
d="M306 294c-23 0 -43 3 -62 10c-8 -35 -24 -93 -32 -130c-13 -57 -21 -94 -36 -145l89 2l-9 -31c-25 1 -52 1 -82 1h-85c-26 0 -57 0 -93 -1l6 27l84 2c16 56 20 74 41 162c15 59 34 134 58 231c16 63 36 147 47 198h-85l8 30c120 -3 107 -2 233 3c100 5 199 -41 199 -138
c0 -146 -140 -221 -281 -221zM486 500c0 72 -49 122 -122 122h-20c-7 0 -14 -1 -23 -2c-12 -47 -26 -102 -33 -130c-11 -51 -30 -127 -38 -162c15 -3 28 -5 43 -5c112 0 193 80 193 177z" />
    <glyph glyph-name="Q" unicode="Q" horiz-adv-x="652" 
d="M343 -8c-45 -123 -25 -172 63 -172c15 0 33 2 53 5l-7 -29c-24 -4 -46 -5 -66 -5c-120 0 -186 64 -159 201c-99 27 -153 120 -153 230c0 198 162 439 375 439c141 0 210 -115 210 -237c0 -181 -135 -389 -316 -432zM556 477c0 68 -36 152 -125 152
c-180 0 -255 -311 -255 -460c0 -83 38 -150 126 -150c179 0 254 309 254 458z" />
    <glyph glyph-name="R" unicode="R" horiz-adv-x="611" 
d="M489 204c0 -35 -12 -71 -20 -106c-8 -32 -8 -81 32 -81c8 0 32 10 43 19l12 -17c-21 -19 -49 -26 -74 -26c-77 0 -117 60 -101 138c7 36 18 70 18 110c0 36 -30 76 -111 76h-40c-7 -24 -14 -55 -21 -79c-19 -72 -32 -136 -52 -209l96 1l-9 -30c-80 0 -107 2 -135 2
c-16 0 -36 -1 -68 -1c-16 0 -37 0 -63 -1l6 28l83 1c23 88 38 157 61 245c28 109 59 237 86 346l-85 1l7 29c44 0 88 -1 132 -1c44 1 88 3 132 3c80 0 168 -40 168 -124c0 -114 -109 -176 -204 -194v-5c72 -21 107 -42 107 -125zM487 518c0 51 -22 89 -74 100
c-28 7 -60 4 -92 1l-33 -132l-32 -137c24 0 48 -2 72 1c87 8 159 77 159 167z" />
    <glyph glyph-name="S" unicode="S" horiz-adv-x="484" 
d="M527 655h-26c-17 -43 -30 -40 -51 -24c-29 23 -78 32 -117 32c-115 0 -196 -86 -196 -195c0 -95 77 -143 133 -175c16 -9 32 -17 47 -26c44 -27 79 -57 79 -110c0 -67 -61 -140 -141 -140c-64 0 -101 29 -122 60c-24 35 -20 90 -9 141h-25c-8 -33 -15 -54 -28 -104
c-11 -43 -23 -84 -31 -115h25c21 53 45 29 64 16c25 -16 68 -29 111 -29c164 0 240 130 240 226c0 99 -75 148 -144 185l-51 27c-37 21 -85 49 -85 92c0 69 56 114 122 114c60 0 105 -30 121 -65c19 -41 12 -84 5 -109h26c7 24 9 40 17 71c12 47 27 95 36 128z" />
    <glyph glyph-name="T" unicode="T" horiz-adv-x="593" 
d="M655 442h-24l7 34c11 51 14 102 -57 128c-35 12 -68 12 -116 12l-145 -587h107l-7 -29c-103 2 -207 2 -312 0l7 29h108l144 587c-48 0 -84 0 -124 -12c-82 -26 -106 -76 -120 -128l-9 -34h-24l34 123c11 40 13 45 18 85c30 0 107 -2 196 -2h92c57 0 115 1 163 1
c49 0 88 1 111 1c-13 -40 -15 -45 -23 -85z" />
    <glyph glyph-name="U" unicode="U" horiz-adv-x="686" 
d="M788 620h-38c-52 0 -79 -10 -100 -94c-13 -56 -33 -155 -49 -208c-13 -43 -23 -85 -34 -124c-29 -99 -81 -208 -246 -208c-121 0 -197 47 -197 155c0 61 23 159 36 210l66 269l-86 2l8 30c72 -2 93 -3 121 -3h33c25 0 62 1 125 1l-10 -32l-98 2
c-27 -100 -52 -207 -75 -307c-11 -46 -33 -117 -33 -175c0 -60 37 -121 116 -121c80 0 157 32 197 155c7 23 23 77 40 142c11 40 21 85 32 129c5 21 12 49 19 83c21 83 2 94 -50 94h-23l8 30l113 -3l133 3z" />
    <glyph glyph-name="V" unicode="V" horiz-adv-x="630" 
d="M721 620h16l7 30l-109 -3l-115 3l-7 -30h28c51 0 60 -10 36 -54c-64 -117 -159 -297 -228 -422c-7 59 -13 105 -21 169c-9 73 -16 145 -23 221c-3 27 -7 61 -7 86l88 3l7 27c-89 -3 -176 -1 -265 0l-8 -30h72c8 -39 12 -85 19 -130c8 -60 16 -115 23 -174
c15 -127 28 -238 37 -325h30c113 207 220 402 316 574c27 46 74 55 104 55z" />
    <glyph glyph-name="W" unicode="W" horiz-adv-x="869" 
d="M958 620h16l7 30l-88 -3l-116 3l-7 -30h18c41 0 47 -15 26 -54c-62 -118 -159 -298 -228 -422c-7 59 -12 105 -21 169c-5 44 -10 87 -15 132c23 41 44 81 67 120c31 55 52 55 77 55h23l7 30c-57 0 -114 -2 -173 -2c-53 -1 -106 1 -159 2l-7 -30h44
c16 -79 24 -178 37 -262c-41 -76 -82 -150 -117 -214c-7 59 -13 105 -21 169c-9 73 -16 145 -23 221c-3 27 -7 61 -7 86h58l8 30c-80 -3 -157 -1 -237 0l-6 -28l71 -2c8 -39 12 -85 19 -130c8 -60 16 -115 23 -174c15 -127 28 -238 37 -325h30c60 108 115 213 171 314
c15 -123 27 -230 36 -314h30c113 207 220 402 316 574c27 46 76 55 104 55zM581 573l-37 -69c0 11 -1 19 -2 30c-3 27 -6 61 -7 86h36c27 0 29 -12 10 -47z" />
    <glyph glyph-name="X" unicode="X" horiz-adv-x="611" 
d="M556 0l7 28l-73 1c-9 24 -18 48 -30 85c-24 72 -53 172 -74 244c37 46 130 154 178 207c35 41 62 55 105 55h29l8 30l-121 -2l-101 2l-7 -30h12c51 0 71 -15 38 -54c-136 -160 -110 -127 -150 -175c-7 20 -14 46 -25 79c-16 50 -33 113 -44 150l90 -1l8 31
c-92 0 -179 -3 -275 0l-6 -27l81 -3c19 -61 40 -128 59 -189c13 -44 24 -82 37 -127c-35 -46 -141 -166 -189 -219c-36 -43 -69 -56 -112 -56h-23l-7 -29l120 2l101 -2l7 30h-11c-51 0 -73 15 -38 54c136 160 122 140 162 188l54 -180l18 -63l-90 1l-8 -30c59 3 91 3 114 3
c45 0 53 -3 156 -3z" />
    <glyph glyph-name="Y" unicode="Y" horiz-adv-x="611" 
d="M718 620h-22c-42 0 -69 -8 -106 -55l-207 -252c-11 -40 -32 -124 -45 -179c-15 -59 -21 -86 -24 -105l106 1l-7 -30c-125 0 -135 3 -184 3c-24 0 -58 0 -121 -3l7 27l107 2c5 21 24 85 40 152c11 44 20 87 29 127c-13 43 -31 109 -52 180c-15 47 -28 97 -43 132l-78 2
l7 30c85 -2 118 -3 144 -3h29c21 0 49 1 98 1l-9 -28l-85 -2c11 -41 26 -106 42 -159c15 -47 25 -82 36 -110l170 215c23 29 27 54 -17 54h-26l7 30l116 -3l96 3z" />
    <glyph glyph-name="Z" unicode="Z" horiz-adv-x="572" 
d="M533 193c-11 -37 -18 -59 -30 -96c-5 -17 -13 -46 -22 -97c-69 0 -152 2 -235 2s-166 -1 -237 -6l-6 10c52 64 132 162 224 275c93 115 198 245 275 338h-92h-35c-37 0 -82 -1 -114 -15c-36 -16 -55 -44 -82 -99c-5 -14 -6 -13 -14 -29h-27c19 53 41 119 57 174
c17 -1 34 -1 51 -1h50c47 -1 92 -2 139 -2l186 2l5 -9c-81 -96 -179 -218 -283 -347c-78 -97 -165 -202 -210 -263h79h35h41c28 0 56 1 79 4c56 8 86 29 118 101c11 24 13 34 22 58h26z" />
    <glyph glyph-name="bracketleft" unicode="[" horiz-adv-x="348" 
d="M315 630h123l7 28h-203c-11 -43 -22 -91 -33 -132c-35 -147 -65 -282 -100 -415c-27 -110 -50 -203 -82 -326c24 0 61 -1 98 -1h56h49l7 29h-123c19 79 38 146 59 230c36 144 73 303 113 468c8 35 21 84 29 119z" />
    <glyph glyph-name="backslash" unicode="\" horiz-adv-x="423" 
d="M321 -56h46l-172 743h-44z" />
    <glyph glyph-name="bracketright" unicode="]" horiz-adv-x="348" 
d="M180 -215c-24 0 -60 -1 -99 -1h-56h-48l7 29h123c20 79 33 146 53 230c35 144 76 303 117 468c8 35 19 84 28 119h-123l7 28h203c-11 -43 -20 -91 -31 -132c-37 -147 -72 -282 -104 -415c-27 -110 -48 -203 -77 -326z" />
    <glyph glyph-name="asciicircum" unicode="^" horiz-adv-x="667" 
d="M216 411l216 178l125 -178h39l-120 239h-69l-235 -239h44z" />
    <glyph glyph-name="underscore" unicode="_" horiz-adv-x="490" 
d="M421 -120l10 40c-76 -1 -161 -2 -246 -2c-84 0 -168 1 -244 2l-10 -40c37 1 78 1 124 1h137c91 0 176 -1 229 -1z" />
    <glyph glyph-name="grave" unicode="`" horiz-adv-x="441" 
d="M215 570l107 -109l16 12l-74 123c-15 23 -26 40 -41 45c-16 7 -33 -2 -36 -19c-3 -15 9 -32 28 -52z" />
    <glyph glyph-name="a" unicode="a" horiz-adv-x="504" 
d="M377 -12c-45 0 -73 22 -70 53c-35 -33 -73 -53 -118 -53c-106 0 -157 102 -133 204c24 104 119 214 227 214c39 0 71 -13 92 -40c3 13 3 14 6 25c9 -3 22 -1 35 -1c19 0 35 1 42 1l-21 -84c-11 -47 -21 -92 -32 -139c-8 -37 -14 -66 -19 -89c-3 -13 -12 -57 20 -57
c25 0 51 33 74 73c3 5 8 16 11 21l19 -9c-3 -4 -6 -15 -9 -19c-35 -67 -73 -100 -124 -100zM329 170l23 97c15 65 -17 109 -61 109c-92 0 -135 -120 -149 -174c-8 -40 -39 -185 54 -185c69 0 110 57 121 106c4 16 9 32 12 47z" />
    <glyph glyph-name="b" unicode="b" horiz-adv-x="427" 
d="M185 -13c132 0 235 148 235 263c0 84 -40 156 -134 156c-56 0 -90 -30 -111 -51c10 44 33 137 49 201c11 41 20 82 27 110l-5 3c-32 -11 -64 -24 -141 -27l-5 -22c24 0 33 -1 38 -1h9h13c-3 -20 -9 -46 -16 -71c-17 -72 -36 -156 -55 -233c-8 -36 -15 -70 -22 -95
c-5 -24 -8 -35 -13 -58c-3 -11 -5 -29 -6 -52s3 -43 11 -62c16 -36 54 -61 126 -61zM336 280c0 -92 -69 -267 -150 -267c-92 0 -65 102 -54 151l21 96c10 50 57 111 108 111c59 0 75 -47 75 -91z" />
    <glyph glyph-name="c" unicode="c" horiz-adv-x="383" 
d="M356 86c-52 -64 -110 -99 -174 -99c-84 0 -144 63 -144 151c0 132 115 266 251 266c48 0 108 -27 108 -80c0 -35 -17 -58 -48 -58c-23 0 -38 15 -38 31c0 11 5 26 13 34c4 5 10 10 10 17c0 22 -33 30 -49 30c-119 0 -165 -177 -165 -274c0 -51 25 -87 85 -87
c51 0 91 36 138 83z" />
    <glyph glyph-name="d" unicode="d" horiz-adv-x="511" 
d="M518 666c-8 -28 -17 -69 -28 -110c-12 -43 -82 -347 -94 -388c-8 -32 -21 -82 -21 -117c0 -15 6 -29 23 -29c35 0 74 66 98 122l20 -7c-43 -99 -81 -150 -151 -150c-52 0 -69 34 -68 69c-43 -57 -89 -68 -132 -68c-106 0 -141 102 -117 204c24 104 119 214 227 214
c39 0 70 -13 91 -40c7 28 12 49 19 77c8 33 18 72 25 105c7 25 13 51 17 71h-17h-13c-5 0 -16 0 -31 1l6 22c76 3 110 16 141 27zM345 266c13 53 -11 109 -62 109c-91 0 -133 -106 -149 -174c-11 -48 -36 -183 42 -183c93 0 136 108 158 200z" />
    <glyph glyph-name="e" unicode="e" horiz-adv-x="387" 
d="M211 17c56 0 103 42 132 87l17 -11c-35 -56 -99 -107 -168 -107c-94 0 -152 65 -152 156c0 128 110 262 245 262c55 0 96 -34 96 -82c0 -63 -64 -130 -249 -130c-7 -23 -9 -35 -9 -66c0 -60 22 -109 88 -109zM138 218c117 0 172 61 172 117c0 24 -19 42 -43 42
c-84 0 -113 -103 -129 -159z" />
    <glyph glyph-name="f" unicode="f" horiz-adv-x="262" 
d="M425 600c0 45 -41 66 -77 66c-48 0 -89 -29 -121 -69c-61 -80 -88 -182 -93 -206l-63 1l-6 -27h62c-8 -33 -22 -95 -35 -152c-8 -41 -23 -113 -34 -158c-15 -63 -29 -115 -45 -176c-15 -51 -44 -94 -91 -94c-7 0 -22 0 -22 11c0 1 11 20 11 25c0 28 -21 41 -34 41
c-29 0 -44 -22 -44 -45c0 -40 45 -57 76 -57c87 0 148 82 182 175c23 64 45 142 65 226c15 63 33 144 49 204h84l4 27h-82c8 30 10 34 18 68c27 89 59 183 105 183c7 0 24 -1 24 -12s-11 -18 -11 -35c0 -21 18 -34 39 -34s39 15 39 38z" />
    <glyph glyph-name="g" unicode="g" horiz-adv-x="455" 
d="M456 336c-10 0 -16 4 -19 13c-3 11 0 27 -16 20c-11 -4 -23 -21 -27 -41c-3 -7 -4 -11 -5 -18c-3 -13 -2 -25 -5 -40c-19 -86 -101 -142 -179 -142c-29 0 -54 6 -71 17c-19 -11 -47 -34 -47 -58c0 -17 23 -23 41 -23h16c60 0 118 6 174 6c44 0 77 -18 77 -65
c0 -140 -124 -251 -260 -251c-67 0 -166 31 -166 107c0 72 69 115 128 139c-36 3 -66 14 -66 45c0 50 47 93 87 112c-15 11 -31 39 -31 75c0 92 95 173 184 173c55 0 91 -25 107 -75c8 28 18 48 41 67c12 10 25 15 40 15c23 0 37 -13 37 -36c0 -21 -17 -40 -40 -40zM265 380
c-79 0 -109 -105 -109 -170c0 -35 14 -63 53 -63c75 0 109 109 109 170c0 35 -12 63 -53 63zM251 1c-52 0 -110 -4 -139 -1c-39 -35 -68 -76 -68 -129c0 -57 45 -88 105 -88c83 0 209 75 209 167c0 50 -63 51 -107 51z" />
    <glyph glyph-name="h" unicode="h" horiz-adv-x="515" 
d="M525 137c-39 -97 -79 -148 -154 -148c-72 0 -71 63 -58 108c5 19 10 45 17 73s20 68 29 104c8 30 18 95 -32 95c-67 0 -137 -102 -161 -205c-3 -12 -10 -40 -17 -67c-5 -23 -11 -48 -15 -69c-3 -11 -3 -19 -6 -28h-76c11 43 20 82 31 123c12 51 22 101 35 153
c12 48 32 124 52 208c11 45 22 100 29 135h-13h-8c-5 0 -14 1 -38 1l5 22c77 3 105 16 137 27l5 -3c-15 -56 -38 -140 -55 -215c-13 -56 -22 -101 -29 -136l2 -1c32 54 100 92 146 92c51 0 88 -18 89 -83c1 -12 -1 -26 -4 -41c-8 -37 -22 -83 -29 -114
c-9 -37 -16 -66 -20 -89c-3 -13 -12 -57 20 -57c35 0 77 66 98 122z" />
    <glyph glyph-name="i" unicode="i" horiz-adv-x="274" 
d="M265 582c0 27 -21 48 -48 48s-48 -21 -48 -48s21 -48 48 -48s48 21 48 48zM281 137l-20 7c-24 -56 -63 -122 -98 -122c-32 0 -22 44 -19 57c4 23 9 52 18 89c9 41 21 84 33 128c11 40 19 81 27 110l-5 3c-32 -11 -64 -24 -141 -27l-6 -22c12 -1 21 -1 26 -1h13h9h13
c-4 -20 -11 -46 -16 -71c-9 -40 -20 -81 -29 -118c-7 -28 -12 -54 -17 -73c-13 -45 -14 -108 58 -108c74 0 112 50 154 148z" />
    <glyph glyph-name="j" unicode="j" horiz-adv-x="242" 
d="M265 582c0 27 -21 48 -48 48s-48 -21 -48 -48s21 -48 48 -48s48 21 48 48zM222 406l-4 3c-32 -11 -63 -24 -140 -27l-5 -22c12 -1 21 -1 26 -1h13h9h13c-28 -145 -63 -284 -98 -424c-11 -43 -37 -151 -85 -151c-8 0 -12 7 -12 12c0 7 5 13 5 24c0 27 -17 40 -41 40
c-23 0 -38 -18 -38 -41c0 -41 38 -59 73 -59c109 0 167 149 186 235c33 140 66 268 98 411z" />
    <glyph glyph-name="k" unicode="k" horiz-adv-x="451" 
d="M315 306c-15 -27 -36 -55 -71 -68c7 -1 13 -3 20 -4c44 -13 73 -36 73 -77c0 -35 -15 -69 -15 -101c0 -15 4 -28 23 -28c28 0 72 89 83 116l21 -7c-29 -72 -74 -148 -144 -148c-39 0 -67 21 -67 62c0 30 25 81 25 119c0 52 -61 53 -98 53l-5 -21
c-20 -87 -38 -158 -47 -202h-75c11 36 24 101 53 222l26 110c11 40 49 197 52 216c7 25 12 51 15 71h-17h-13c-5 0 -15 0 -30 1l5 22c78 3 108 17 139 27l5 -3c-7 -28 -16 -69 -27 -110c-6 -20 -32 -122 -50 -201l-25 -105c47 -1 75 11 91 30c21 23 33 52 48 79
c19 32 44 51 81 51c29 0 53 -15 53 -55c0 -31 -20 -48 -44 -48c-23 0 -36 10 -36 27c0 15 3 12 6 27c1 7 -2 11 -10 11c-7 0 -14 -5 -19 -15c-8 -16 -22 -43 -26 -51z" />
    <glyph glyph-name="l" unicode="l" horiz-adv-x="296" 
d="M283 666l-5 3c-32 -11 -64 -24 -141 -27l-5 -22c24 0 33 -1 38 -1h9h13c-3 -20 -9 -46 -16 -71c-8 -40 -82 -341 -90 -378c-7 -28 -12 -54 -17 -73c-13 -45 -14 -108 58 -108c74 0 112 50 154 148l-20 7c-24 -56 -63 -122 -98 -122c-32 0 -22 44 -19 57c4 23 9 52 18 89
c8 41 82 345 94 388c11 41 20 82 27 110z" />
    <glyph glyph-name="m" unicode="m" horiz-adv-x="737" 
d="M747 137l-19 7c-24 -56 -63 -122 -98 -122c-32 0 -23 44 -20 57c4 23 11 52 20 89c7 31 21 77 29 114c3 15 5 29 4 41c-1 65 -38 83 -89 83c-47 0 -109 -38 -141 -92l-3 -3v12c-1 65 -40 83 -91 83c-47 0 -106 -39 -138 -92l-2 1c7 31 13 60 21 91l-5 3
c-32 -11 -60 -24 -137 -27l-6 -22c12 -1 21 -1 26 -1h13h8h13c-5 -27 -11 -58 -18 -83c-12 -52 -23 -102 -35 -153c-11 -41 -20 -80 -31 -123h76c3 9 3 17 6 28c4 21 10 46 15 69c7 27 14 55 17 67c24 105 94 207 153 207c61 0 40 -60 32 -97c-9 -36 -22 -76 -29 -104
c-8 -27 -35 -152 -40 -170h79c5 21 29 124 37 164c24 107 88 205 156 205c45 0 40 -58 32 -95c-9 -36 -22 -76 -29 -104s-12 -54 -17 -73c-13 -45 -14 -108 58 -108c74 0 111 50 153 148z" />
    <glyph glyph-name="n" unicode="n" horiz-adv-x="514" 
d="M525 137c-39 -97 -79 -148 -154 -148c-72 0 -71 63 -58 108c5 19 10 45 17 73s20 68 29 104c8 30 18 95 -32 95c-69 0 -137 -112 -161 -205c-3 -12 -10 -40 -17 -67c-5 -23 -11 -48 -15 -69c-3 -11 -3 -19 -6 -28h-76c11 43 20 82 31 123c12 51 22 101 34 153
c7 25 14 56 19 83h-13h-8h-13c-5 0 -14 0 -26 1l6 22c77 3 105 16 137 27l5 -3c-8 -31 -14 -60 -21 -91l2 -1c32 54 100 92 146 92c51 0 88 -18 89 -83c1 -12 -1 -26 -4 -41c-8 -37 -22 -83 -29 -114c-9 -37 -16 -66 -20 -89c-3 -13 -12 -57 20 -57c35 0 77 66 98 122z" />
    <glyph glyph-name="o" unicode="o" horiz-adv-x="450" 
d="M428 247c0 85 -52 159 -146 159c-131 0 -242 -136 -242 -271c0 -68 45 -148 156 -148c123 0 232 145 232 260zM346 296c0 -92 -43 -281 -154 -281c-45 0 -75 39 -75 84c0 88 51 280 158 280c51 0 71 -32 71 -83z" />
    <glyph glyph-name="p" unicode="p" horiz-adv-x="474" 
d="M445 198c-24 -104 -119 -213 -227 -213c-39 0 -71 12 -92 39c-7 -28 -12 -49 -19 -77c-4 -15 -8 -33 -12 -50c-11 -40 -18 -78 -23 -106l62 1l-8 -27c-76 0 -87 4 -123 4c-17 0 -41 -1 -82 -4l6 25l65 1c13 58 8 36 24 94c24 105 72 306 80 337c5 26 25 105 30 130h-13
h-8c-5 0 -15 1 -39 1l6 23c78 3 104 15 137 26l5 -3c-8 -31 -13 -53 -20 -84l2 -1c31 52 86 88 135 88c100 0 138 -104 114 -204zM359 189c11 48 35 183 -43 183c-65 0 -133 -109 -157 -201l-11 -48c-11 -54 10 -108 61 -108c93 0 134 106 150 174z" />
    <glyph glyph-name="q" unicode="q" horiz-adv-x="474" 
d="M318 -209l65 1l-8 -27c-40 0 -62 1 -78 1h-22h-22c-17 0 -41 -1 -82 -1l6 25l61 1c8 31 17 62 29 111l30 134c-43 -41 -94 -49 -117 -49c-107 0 -146 103 -122 205c24 104 115 214 227 214c39 0 70 -13 91 -40c4 13 4 14 7 25c9 -3 22 1 34 1c19 0 36 -1 43 -1
c-18 -74 -35 -149 -47 -192c-3 -15 -6 -25 -7 -31s-4 -16 -7 -30c-13 -67 -48 -203 -51 -222c-9 -43 -19 -78 -30 -125zM330 170l24 97c17 65 -12 110 -61 110c-92 0 -133 -108 -149 -175c-11 -52 -40 -185 54 -185c72 0 116 86 132 153z" />
    <glyph glyph-name="r" unicode="r" horiz-adv-x="335" 
d="M390 358c0 27 -25 50 -69 50s-94 -42 -118 -79c7 24 11 47 18 70l-5 3c-33 -11 -59 -23 -137 -26l-6 -23c24 0 34 -1 39 -1h8h13c-6 -25 -22 -93 -28 -118c-13 -56 -30 -126 -41 -173c-7 -27 -12 -49 -15 -61h81l32 143c5 31 25 117 41 151c13 28 60 80 91 80
c9 0 13 -3 13 -10c0 -5 -5 -10 -5 -29s9 -37 38 -37c32 0 50 27 50 60z" />
    <glyph glyph-name="s" unicode="s" horiz-adv-x="349" 
d="M278 301c20 0 42 14 42 39c0 59 -66 66 -101 66c-60 0 -125 -41 -125 -116c0 -41 31 -79 60 -110c30 -30 65 -58 65 -100c0 -29 -18 -68 -85 -68c-16 0 -51 6 -51 22c1 1 1 1 1 2s1 3 2 5c7 12 14 22 15 37c3 24 -16 40 -37 40c-28 0 -43 -25 -43 -49
c0 -21 20 -80 120 -80c78 0 161 33 161 125c0 60 -65 113 -103 154c-21 23 -34 40 -34 60c0 36 23 54 55 54c17 0 35 -4 34 -19c0 -1 -1 -3 -2 -6c-3 -8 -6 -16 -6 -23c-1 -19 9 -33 32 -33z" />
    <glyph glyph-name="t" unicode="t" horiz-adv-x="277" 
d="M267 137l-20 7c-24 -56 -63 -122 -98 -122c-32 0 -22 44 -19 57c4 23 10 52 19 89c5 28 31 133 47 197c23 -1 44 -1 63 -1h41l9 28h-28h-19h-22h-37c4 16 9 37 14 56c7 29 11 56 18 79c-27 -14 -54 -21 -81 -20c-3 -13 -6 -31 -10 -46c-7 -25 -14 -50 -18 -70l-67 -1
l-5 -25h66c-16 -61 -42 -169 -47 -195c-7 -28 -13 -54 -18 -73c-13 -45 -14 -108 58 -108c74 0 112 50 154 148z" />
    <glyph glyph-name="u" unicode="u" horiz-adv-x="495" 
d="M498 96c-39 -71 -71 -110 -131 -110c-70 0 -72 57 -69 93l-1 1c-32 -53 -100 -93 -147 -93c-51 0 -89 18 -90 83c0 12 1 26 4 41c8 37 20 83 27 114c5 24 30 106 35 130h-17h-13c-5 0 -15 0 -30 1l6 23c78 3 104 15 137 26l5 -3c-7 -23 -11 -47 -18 -70
c-8 -25 -22 -81 -30 -109c-7 -28 -14 -68 -25 -104c-8 -30 -19 -95 33 -95c68 0 140 112 161 205c3 12 10 40 17 67c7 23 11 48 15 69c3 11 3 17 6 26h75c-13 -45 -19 -80 -30 -121c-11 -48 -21 -97 -32 -148c-4 -16 -6 -31 -9 -43c-3 -13 -9 -57 18 -57c31 0 64 45 83 83z
" />
    <glyph glyph-name="v" unicode="v" horiz-adv-x="408" 
d="M284 129c59 51 122 127 122 207c0 37 -16 70 -52 70c-29 0 -54 -19 -54 -47c0 -15 7 -25 15 -32c28 -17 32 -11 32 -40c0 -21 -9 -46 -27 -75c-11 -19 -27 -36 -44 -53c-31 -31 -66 -59 -93 -79c-3 19 -8 40 -19 65c-17 43 -30 77 -30 121c0 56 37 94 76 130l-17 15
c-59 -37 -138 -113 -138 -186c0 -28 13 -58 22 -85l20 -52c12 -32 26 -56 7 -91l23 -10c15 25 48 55 73 74c29 23 56 45 84 68z" />
    <glyph glyph-name="w" unicode="w" horiz-adv-x="655" 
d="M525 129c59 51 122 127 122 207c0 37 -16 70 -52 70c-29 0 -54 -19 -54 -47c0 -15 7 -25 15 -32c28 -17 32 -11 32 -40c0 -21 -9 -46 -27 -75c-11 -19 -27 -36 -44 -53c-31 -31 -66 -59 -93 -79c-3 19 -8 40 -19 65c-17 43 -30 77 -30 121c0 56 37 94 76 130l-17 15
c-59 -37 -138 -113 -138 -186c0 -10 2 -22 5 -35c-9 -11 -18 -20 -29 -31c-31 -31 -66 -59 -93 -79c-3 19 -8 40 -19 65c-17 43 -30 77 -30 121c0 56 37 94 76 130l-17 15c-59 -37 -138 -113 -138 -186c0 -28 13 -58 22 -85l20 -52c12 -32 26 -56 7 -91l23 -10
c15 25 48 55 73 74c29 23 56 45 84 68c11 9 21 18 32 29l6 -18l20 -52c12 -32 26 -56 7 -91l23 -10c15 25 48 55 73 74c29 23 56 45 84 68z" />
    <glyph glyph-name="x" unicode="x" horiz-adv-x="440" 
d="M42 253l25 -9c19 38 62 115 94 115c12 0 17 -17 25 -91c3 -31 4 -58 9 -86l-89 -107c-19 -23 -37 -34 -52 -19c-7 7 -15 15 -27 15c-23 0 -42 -12 -42 -41s18 -41 43 -41c41 0 68 40 92 67l78 91c3 -35 5 -68 9 -91c7 -40 20 -67 68 -67c64 0 122 90 149 157l-24 6
c-17 -36 -62 -121 -93 -121c-15 0 -19 13 -23 60c-3 21 -10 86 -13 135l77 97c15 19 30 17 41 13c7 -3 14 -5 22 -5c20 0 44 15 44 38s-18 37 -38 37c-23 0 -54 -28 -82 -59c-27 -29 -52 -60 -67 -79c-8 89 -25 138 -80 138c-58 0 -119 -94 -146 -153z" />
    <glyph glyph-name="y" unicode="y" horiz-adv-x="416" 
d="M468 366c0 25 -23 40 -46 40c-17 0 -32 -10 -47 -31c-6 -11 -13 -24 -21 -39c-7 -16 -15 -34 -26 -57l-76 -175c1 12 1 28 1 47c0 94 -12 255 -103 255c-72 0 -107 -106 -131 -161l26 -9c8 15 17 46 32 73c13 28 28 51 47 51c43 0 112 -350 12 -494
c-35 -49 -55 -62 -66 -62c-7 0 -11 4 -16 9l-5 6c-7 8 -15 16 -31 16c-21 0 -36 -17 -36 -33c0 -35 23 -43 48 -43c57 0 131 61 201 225c29 67 67 157 100 233c21 51 39 88 50 109s16 20 21 15c1 0 2 -1 2 -2l3 -2c5 -7 10 -12 19 -12c32 0 42 25 42 41z" />
    <glyph glyph-name="z" unicode="z" horiz-adv-x="364" 
d="M104 91l229 233c11 11 39 50 39 62c-1 9 -2 20 -14 20c-8 0 -13 -3 -18 -7c-23 -24 -55 -26 -80 -23c-48 5 -109 19 -144 30l-68 -132l27 -9l36 62c51 -17 111 -28 168 -13l-243 -250c-7 -7 -11 -12 -13 -15c-8 -8 -15 -22 -14 -37c1 -13 2 -21 17 -21c7 0 13 3 16 9
c16 27 33 28 52 21c15 -4 35 -9 50 -13c35 -11 67 -19 94 -19c64 0 112 30 112 77c0 39 -20 69 -47 69c-19 0 -36 -10 -36 -33c0 -21 27 -28 38 -31c7 -1 14 -4 14 -12c0 -7 -8 -18 -23 -18c-24 0 -56 16 -88 27c-36 12 -69 22 -104 23z" />
    <glyph glyph-name="braceleft" unicode="{" horiz-adv-x="329" 
d="M186 -229l5 21c-80 13 -64 62 -48 146c13 63 57 160 57 215c0 39 -17 59 -52 74c57 19 83 47 107 130c17 65 20 130 39 195c19 71 50 111 110 112l6 22c-91 -8 -145 -12 -185 -114c-32 -87 -31 -172 -63 -260c-15 -43 -40 -65 -81 -76l-4 -15c19 -7 31 -18 36 -34
c8 -29 4 -71 -9 -124c-16 -68 -49 -130 -49 -202c0 -73 64 -85 131 -90z" />
    <glyph glyph-name="bar" unicode="|" horiz-adv-x="216" 
d="M84 -229h51v916h-51v-916z" />
    <glyph glyph-name="braceright" unicode="}" horiz-adv-x="329" 
d="M286 221l4 15c-36 11 -51 33 -44 76c13 96 65 196 65 289c0 74 -53 80 -130 85l-5 -22c59 -1 71 -41 56 -112c-16 -81 -64 -164 -64 -247c0 -44 22 -66 51 -78c-55 -19 -86 -50 -103 -115c-11 -35 -18 -111 -34 -174c-24 -84 -33 -132 -119 -146l-6 -21
c91 8 147 8 187 118c24 63 30 139 38 174c13 53 29 95 52 124c11 15 29 27 52 34z" />
    <glyph glyph-name="asciitilde" unicode="~" horiz-adv-x="549" 
d="M524 312l-15 13c-30 -39 -62 -59 -97 -59c-67 0 -113 52 -182 52c-56 0 -105 -40 -144 -104l16 -12c31 39 63 62 102 62c67 0 114 -51 180 -54c55 -1 105 39 140 102z" />
    <glyph glyph-name="Adieresis" unicode="&#xc4;" horiz-adv-x="593" 
d="M535 0l9 30l-64 -1c-11 90 -24 259 -40 412c-8 83 -15 155 -22 220h-33c-28 -53 -75 -139 -123 -227c-83 -150 -175 -312 -226 -405l-67 1l-8 -29h48h31h23h22c17 0 41 -1 81 -1l7 28l-88 1c11 23 29 53 49 89c19 36 39 76 54 103h172c3 -33 7 -73 10 -104
c3 -43 5 -69 6 -88l-78 -1l-8 -28c53 0 84 1 105 1h27h26c19 0 43 -1 87 -1zM359 249h-157c19 35 42 74 69 123c26 47 56 103 72 133c1 -39 6 -79 9 -126c3 -51 4 -105 7 -130zM288 744c0 -27 20 -47 47 -47s47 20 47 47s-20 47 -47 47s-47 -20 -47 -47zM450 744
c0 -27 20 -47 47 -47s47 20 47 47s-20 47 -47 47s-47 -20 -47 -47z" />
    <glyph glyph-name="Eacute" unicode="&#xc9;" horiz-adv-x="572" 
d="M552 193c-21 -69 -42 -124 -59 -195c-124 8 -244 3 -368 3c-52 1 -99 1 -130 -2l8 28l85 2c15 59 36 154 65 271c19 76 36 151 55 224c8 32 18 69 25 96l-86 1l7 29c23 -1 46 -2 68 -2c23 0 46 0 69 1c113 1 223 -2 338 5c-17 -60 -27 -120 -40 -180h-25c3 41 1 80 -8 96
c-21 39 -76 51 -165 50l-68 -1c-35 -134 -21 -93 -65 -265h31c88 0 107 33 134 116h24c-13 -43 -24 -85 -35 -128c-12 -47 -22 -90 -31 -137h-25c11 88 24 120 -72 120h-34l-21 -94l-50 -202h102c136 0 201 31 244 164h27zM466 729l-142 -56l-10 17l118 83
c23 15 40 26 55 25c19 -1 31 -16 26 -32c-4 -15 -20 -26 -47 -37z" />
    <glyph glyph-name="Odieresis" unicode="&#xd6;" horiz-adv-x="652" 
d="M284 -15c-136 0 -211 111 -211 244c0 195 168 432 376 432c136 0 210 -107 210 -239c0 -195 -169 -437 -375 -437zM556 472c0 95 -37 157 -125 157c-177 0 -255 -305 -255 -453c0 -88 35 -157 126 -157c172 0 254 301 254 453zM348 744c0 27 20 47 47 47s47 -20 47 -47
s-20 -47 -47 -47s-47 20 -47 47zM510 744c0 27 20 47 47 47s47 -20 47 -47s-20 -47 -47 -47s-47 20 -47 47z" />
    <glyph glyph-name="Udieresis" unicode="&#xdc;" horiz-adv-x="686" 
d="M788 620h-38c-52 0 -79 -10 -100 -94c-13 -56 -33 -155 -49 -208c-13 -43 -23 -85 -34 -124c-29 -99 -81 -208 -246 -208c-121 0 -197 47 -197 155c0 61 23 159 36 210l66 269l-86 2l8 30c72 -2 93 -3 121 -3h33c25 0 62 1 125 1l-10 -32l-98 2
c-27 -100 -52 -207 -75 -307c-11 -46 -33 -117 -33 -175c0 -60 37 -121 116 -121c80 0 157 32 197 155c7 23 23 77 40 142c11 40 21 85 32 129c5 21 12 49 19 83c21 83 2 94 -50 94h-23l8 30l113 -3l133 3zM348 744c0 27 20 47 47 47s47 -20 47 -47s-20 -47 -47 -47
s-47 20 -47 47zM510 744c0 27 20 47 47 47s47 -20 47 -47s-20 -47 -47 -47s-47 20 -47 47z" />
    <glyph glyph-name="agrave" unicode="&#xe0;" horiz-adv-x="504" 
d="M510 107c-3 -4 -6 -15 -9 -19c-35 -67 -73 -100 -124 -100c-45 0 -73 22 -70 53c-35 -33 -73 -53 -118 -53c-106 0 -157 102 -133 204c24 104 119 214 227 214c39 0 71 -13 92 -40c3 13 3 14 6 25c9 -3 22 -1 35 -1c19 0 35 1 42 1l-21 -84c-11 -47 -21 -92 -32 -139
c-8 -37 -14 -66 -19 -89c-3 -13 -12 -57 20 -57c25 0 51 33 74 73c3 5 8 16 11 21zM352 267c15 65 -17 109 -61 109c-92 0 -135 -120 -149 -174c-8 -40 -39 -185 54 -185c69 0 110 57 121 106c4 16 9 32 12 47zM322 461l-107 109c-19 20 -31 37 -28 52c3 17 20 26 36 19
c15 -5 26 -22 41 -45l74 -123z" />
    <glyph glyph-name="acircumflex" unicode="&#xe2;" horiz-adv-x="504" 
d="M377 -12c-45 0 -73 22 -70 53c-35 -33 -73 -53 -118 -53c-106 0 -157 102 -133 204c24 104 119 214 227 214c39 0 71 -13 92 -40c3 13 3 14 6 25c9 -3 22 -1 35 -1c19 0 35 1 42 1l-21 -84c-11 -47 -21 -92 -32 -139c-8 -37 -14 -66 -19 -89c-3 -13 -12 -57 20 -57
c25 0 51 33 74 73c3 5 8 16 11 21l19 -9c-3 -4 -6 -15 -9 -19c-35 -67 -73 -100 -124 -100zM329 170l23 97c15 65 -17 109 -61 109c-92 0 -135 -120 -149 -174c-8 -40 -39 -185 54 -185c69 0 110 57 121 106c4 16 9 32 12 47zM334 559l-136 -98h-35l160 159h52l79 -159h-34z
" />
    <glyph glyph-name="adieresis" unicode="&#xe4;" horiz-adv-x="504" 
d="M377 -12c-45 0 -73 22 -70 53c-35 -33 -73 -53 -118 -53c-106 0 -157 102 -133 204c24 104 119 214 227 214c39 0 71 -13 92 -40c3 13 3 14 6 25c9 -3 22 -1 35 -1c19 0 35 1 42 1l-21 -84c-11 -47 -21 -92 -32 -139c-8 -37 -14 -66 -19 -89c-3 -13 -12 -57 20 -57
c25 0 51 33 74 73c3 5 8 16 11 21l19 -9c-3 -4 -6 -15 -9 -19c-35 -67 -73 -100 -124 -100zM329 170l23 97c15 65 -17 109 -61 109c-92 0 -135 -120 -149 -174c-8 -40 -39 -185 54 -185c69 0 110 57 121 106c4 16 9 32 12 47zM206 531c0 27 20 47 47 47s47 -20 47 -47
s-20 -47 -47 -47s-47 20 -47 47zM368 531c0 27 20 47 47 47s47 -20 47 -47s-20 -47 -47 -47s-47 20 -47 47z" />
    <glyph glyph-name="dieresis" unicode="&#xa8;" horiz-adv-x="504" 
d="M206 531c0 -27 20 -47 47 -47s47 20 47 47s-20 47 -47 47s-47 -20 -47 -47zM368 531c0 -27 20 -47 47 -47s47 20 47 47s-20 47 -47 47s-47 -20 -47 -47z" />
    <glyph glyph-name="ccedilla" unicode="&#xe7;" horiz-adv-x="403" 
d="M363 86c-47 -57 -97 -91 -153 -98l-45 -41c47 5 82 -21 71 -69c-16 -61 -90 -94 -143 -94c-17 0 -60 4 -55 31c3 12 14 19 25 19c29 0 25 -21 57 -21c29 0 62 19 70 52c8 29 -18 49 -45 49c-15 0 -39 -6 -54 -13l-4 12l83 75c-75 9 -125 69 -125 150
c0 132 115 266 251 266c48 0 108 -27 108 -80c0 -35 -17 -58 -48 -58c-23 0 -38 15 -38 31c0 11 5 26 13 34c4 5 10 10 10 17c0 22 -33 30 -49 30c-118 0 -165 -177 -165 -274c0 -51 25 -87 85 -87c51 0 91 36 138 83z" />
    <glyph glyph-name="eacute" unicode="&#xe9;" horiz-adv-x="387" 
d="M211 17c56 0 103 42 132 87l17 -11c-35 -56 -99 -107 -168 -107c-94 0 -152 65 -152 156c0 128 110 262 245 262c55 0 96 -34 96 -82c0 -63 -64 -130 -249 -130c-7 -23 -9 -35 -9 -66c0 -60 22 -109 88 -109zM138 218c117 0 172 61 172 117c0 24 -19 42 -43 42
c-84 0 -113 -103 -129 -159zM369 570l-107 -109l-16 12l74 123c15 23 26 40 41 45c16 7 33 -2 36 -19c3 -15 -9 -32 -28 -52z" />
    <glyph glyph-name="egrave" unicode="&#xe8;" horiz-adv-x="387" 
d="M211 17c56 0 103 42 132 87l17 -11c-35 -56 -99 -107 -168 -107c-94 0 -152 65 -152 156c0 128 110 262 245 262c55 0 96 -34 96 -82c0 -63 -64 -130 -249 -130c-7 -23 -9 -35 -9 -66c0 -60 22 -109 88 -109zM138 218c117 0 172 61 172 117c0 24 -19 42 -43 42
c-84 0 -113 -103 -129 -159zM297 461l-107 109c-19 20 -31 37 -28 52c3 17 20 26 36 19c15 -5 26 -22 41 -45l74 -123z" />
    <glyph glyph-name="ecircumflex" unicode="&#xea;" horiz-adv-x="387" 
d="M211 17c56 0 103 42 132 87l17 -11c-35 -56 -99 -107 -168 -107c-94 0 -152 65 -152 156c0 128 110 262 245 262c55 0 96 -34 96 -82c0 -63 -64 -130 -249 -130c-7 -23 -9 -35 -9 -66c0 -60 22 -109 88 -109zM138 218c117 0 172 61 172 117c0 24 -19 42 -43 42
c-84 0 -113 -103 -129 -159zM294 559l-136 -98h-35l160 159h52l79 -159h-34z" />
    <glyph glyph-name="edieresis" unicode="&#xeb;" horiz-adv-x="387" 
d="M211 17c56 0 103 42 132 87l17 -11c-35 -56 -99 -107 -168 -107c-94 0 -152 65 -152 156c0 128 110 262 245 262c55 0 96 -34 96 -82c0 -63 -64 -130 -249 -130c-7 -23 -9 -35 -9 -66c0 -60 22 -109 88 -109zM138 218c117 0 172 61 172 117c0 24 -19 42 -43 42
c-84 0 -113 -103 -129 -159zM166 531c0 27 20 47 47 47s47 -20 47 -47s-20 -47 -47 -47s-47 20 -47 47zM328 531c0 27 20 47 47 47s47 -20 47 -47s-20 -47 -47 -47s-47 20 -47 47z" />
    <glyph glyph-name="sterling" unicode="&#xa3;" horiz-adv-x="507" 
d="M479 131c-37 -70 -95 -142 -174 -142c-51 0 -96 23 -127 59c-32 -35 -73 -58 -104 -58c-43 0 -70 19 -70 66c0 36 49 75 101 75c19 0 57 -15 73 -23c11 17 19 32 23 47c5 21 7 47 7 72s-3 50 -7 70h-115l8 32h105c-3 43 -2 94 7 131c24 92 104 172 195 172
c67 0 131 -32 126 -100c-3 -36 -29 -57 -52 -57c-28 0 -42 19 -42 38c0 37 39 32 44 53c8 27 -53 38 -72 38c-51 0 -98 -41 -114 -108c-13 -53 7 -116 10 -167h131l-7 -32l-125 -1c0 -31 -10 -62 -17 -91c-9 -39 -41 -78 -72 -113c33 -17 69 -34 109 -34c48 0 93 7 143 81z
M155 67c-17 19 -40 33 -65 33c-28 0 -56 -22 -56 -51c0 -21 16 -34 39 -34c31 0 61 25 82 52z" />
    <glyph glyph-name="trademark" unicode="&#x2122;" horiz-adv-x="705" 
d="M538 324v19h44c0 64 1 126 2 190c0 25 -1 57 -2 84c-19 -56 -78 -227 -99 -293h-13c-11 35 -25 77 -41 132c-11 32 -21 70 -32 103c-7 21 -12 40 -17 56v-71c0 -52 -1 -100 -1 -132v-24c0 -40 12 -45 36 -45h14v-19h-119v19h14c39 0 34 21 34 71v64c0 51 1 111 1 151h-46
v20h108c11 -40 19 -70 31 -106c13 -43 28 -89 41 -128c25 75 51 147 79 234h103v-20h-44v-39v-131c0 -36 -1 -61 -1 -116h45v-19h-137zM286 536l-1 27c-1 25 -5 49 -41 61c-19 7 -37 6 -56 6v-285h52v-19c-53 1 -105 1 -158 0v19h53v285c-19 0 -37 1 -56 -6
c-37 -12 -41 -36 -42 -61l-1 -27h-17l3 71c1 19 1 23 -2 44h24c20 0 47 -1 76 -1h45c56 0 112 1 137 1c-1 -21 -2 -25 -2 -44l3 -71h-17z" />
    <glyph glyph-name="icircumflex" unicode="&#xee;" horiz-adv-x="274" 
d="M281 137l-20 7c-24 -56 -63 -122 -98 -122c-32 0 -22 44 -19 57c4 23 9 52 18 89c9 41 21 84 33 128c11 40 19 81 27 110l-5 3c-32 -11 -64 -24 -141 -27l-6 -22c12 -1 21 -1 26 -1h13h9h13c-4 -20 -11 -46 -16 -71c-9 -40 -20 -81 -29 -118c-7 -28 -12 -54 -17 -73
c-13 -45 -14 -108 58 -108c74 0 112 50 154 148zM63 461l137 98l86 -98h34l-80 159h-52l-159 -159h34z" />
    <glyph glyph-name="idieresis" unicode="&#xef;" horiz-adv-x="274" 
d="M281 137l-20 7c-24 -56 -63 -122 -98 -122c-32 0 -22 44 -19 57c4 23 9 52 18 89c9 41 21 84 33 128c11 40 19 81 27 110l-5 3c-32 -11 -64 -24 -141 -27l-6 -22c12 -1 21 -1 26 -1h13h9h13c-4 -20 -11 -46 -16 -71c-9 -40 -20 -81 -29 -118c-7 -28 -12 -54 -17 -73
c-13 -45 -14 -108 58 -108c74 0 112 50 154 148zM54 531c0 -27 20 -47 47 -47s47 20 47 47s-20 47 -47 47s-47 -20 -47 -47zM216 531c0 -27 20 -47 47 -47s47 20 47 47s-20 47 -47 47s-47 -20 -47 -47z" />
    <glyph glyph-name="bullet" unicode="&#x2022;" horiz-adv-x="316" 
d="M263 312c0 56 -43 102 -103 102c-61 0 -104 -49 -104 -102c0 -57 44 -103 105 -103c60 0 102 50 102 103z" />
    <glyph glyph-name="perthousand" unicode="&#x2030;" horiz-adv-x="981" 
d="M611 620l-435 -620h-38l437 620h36zM284 606c-73 0 -113 -137 -113 -201c0 -43 29 -58 50 -58c76 0 112 130 112 194c0 53 -25 65 -49 65zM290 630c68 0 97 -52 97 -112c0 -89 -77 -196 -172 -196c-67 0 -99 55 -99 108c0 84 74 200 174 200zM530 274
c-73 0 -112 -135 -112 -200c0 -43 28 -58 49 -58c76 0 113 130 113 194c0 53 -26 64 -50 64zM536 299c68 0 97 -52 97 -112c0 -89 -76 -196 -172 -196c-67 0 -99 55 -99 108c0 84 74 200 174 200zM838 274c-73 0 -112 -135 -112 -200c0 -43 28 -58 49 -58
c76 0 113 130 113 194c0 53 -26 64 -50 64zM844 299c68 0 97 -52 97 -112c0 -89 -76 -196 -172 -196c-67 0 -99 55 -99 108c0 84 74 200 174 200z" />
    <glyph glyph-name="ocircumflex" unicode="&#xf4;" horiz-adv-x="450" 
d="M428 247c0 85 -52 159 -146 159c-131 0 -242 -136 -242 -271c0 -68 45 -148 156 -148c123 0 232 145 232 260zM346 296c0 -92 -43 -281 -154 -281c-45 0 -75 39 -75 84c0 88 51 280 158 280c51 0 71 -32 71 -83zM188 461l136 98l86 -98h34l-79 159h-52l-160 -159h35z" />
    <glyph glyph-name="odieresis" unicode="&#xf6;" horiz-adv-x="450" 
d="M428 247c0 85 -52 159 -146 159c-131 0 -242 -136 -242 -271c0 -68 45 -148 156 -148c123 0 232 145 232 260zM346 296c0 -92 -43 -281 -154 -281c-45 0 -75 39 -75 84c0 88 51 280 158 280c51 0 71 -32 71 -83zM186 531c0 -27 20 -47 47 -47s47 20 47 47s-20 47 -47 47
s-47 -20 -47 -47zM348 531c0 -27 20 -47 47 -47s47 20 47 47s-20 47 -47 47s-47 -20 -47 -47z" />
    <glyph glyph-name="ugrave" unicode="&#xf9;" horiz-adv-x="495" 
d="M367 -14c-70 0 -72 57 -69 93l-1 1c-32 -53 -100 -93 -147 -93c-51 0 -89 18 -90 83c0 12 1 26 4 41c8 37 20 83 27 114c5 24 30 106 35 130h-17h-13c-5 0 -15 0 -30 1l6 23c78 3 104 15 137 26l5 -3c-7 -23 -11 -47 -18 -70c-8 -25 -22 -81 -30 -109
c-7 -28 -14 -68 -25 -104c-8 -30 -19 -95 33 -95c68 0 140 112 161 205c3 12 10 40 17 67c7 23 11 48 15 69c3 11 3 17 6 26h75c-13 -45 -19 -80 -30 -121c-11 -48 -21 -97 -32 -148c-4 -16 -6 -31 -9 -43c-3 -13 -9 -57 18 -57c31 0 64 45 83 83l20 -9
c-39 -71 -71 -110 -131 -110zM322 461l-107 109c-19 20 -31 37 -28 52c3 17 20 26 36 19c15 -5 26 -22 41 -45l74 -123z" />
    <glyph glyph-name="ucircumflex" unicode="&#xfb;" horiz-adv-x="495" 
d="M367 -14c-70 0 -72 57 -69 93l-1 1c-32 -53 -100 -93 -147 -93c-51 0 -89 18 -90 83c0 12 1 26 4 41c8 37 20 83 27 114c5 24 30 106 35 130h-17h-13c-5 0 -15 0 -30 1l6 23c78 3 104 15 137 26l5 -3c-7 -23 -11 -47 -18 -70c-8 -25 -22 -81 -30 -109
c-7 -28 -14 -68 -25 -104c-8 -30 -19 -95 33 -95c68 0 140 112 161 205c3 12 10 40 17 67c7 23 11 48 15 69c3 11 3 17 6 26h75c-13 -45 -19 -80 -30 -121c-11 -48 -21 -97 -32 -148c-4 -16 -6 -31 -9 -43c-3 -13 -9 -57 18 -57c31 0 64 45 83 83l20 -9
c-39 -71 -71 -110 -131 -110zM321 559l-136 -98h-35l160 159h52l79 -159h-34z" />
    <glyph glyph-name="udieresis" unicode="&#xfc;" horiz-adv-x="495" 
d="M367 -14c-70 0 -72 57 -69 93l-1 1c-32 -53 -100 -93 -147 -93c-51 0 -89 18 -90 83c0 12 1 26 4 41c8 37 20 83 27 114c5 24 30 106 35 130h-17h-13c-5 0 -15 0 -30 1l6 23c78 3 104 15 137 26l5 -3c-7 -23 -11 -47 -18 -70c-8 -25 -22 -81 -30 -109
c-7 -28 -14 -68 -25 -104c-8 -30 -19 -95 33 -95c68 0 140 112 161 205c3 12 10 40 17 67c7 23 11 48 15 69c3 11 3 17 6 26h75c-13 -45 -19 -80 -30 -121c-11 -48 -21 -97 -32 -148c-4 -16 -6 -31 -9 -43c-3 -13 -9 -57 18 -57c31 0 64 45 83 83l20 -9
c-39 -71 -71 -110 -131 -110zM186 531c0 27 20 47 47 47s47 -20 47 -47s-20 -47 -47 -47s-47 20 -47 47zM348 531c0 27 20 47 47 47s47 -20 47 -47s-20 -47 -47 -47s-47 20 -47 47z" />
    <glyph glyph-name="dagger" unicode="&#x2020;" 
d="M532 488c-8 -31 -34 -51 -65 -51c-15 0 -31 7 -52 18c-25 13 -47 25 -70 26c-5 -3 -7 -9 -10 -16c0 -4 -1 -42 -1 -83c0 -40 0 -85 -3 -104c-48 -128 -110 -310 -142 -414h-23c19 98 45 277 61 414c16 46 83 176 86 186c3 9 2 14 -2 17c-23 -1 -50 -12 -81 -25
c-27 -11 -48 -19 -63 -19c-29 0 -46 21 -39 50c8 33 34 53 66 53c13 0 30 -6 51 -17c25 -13 48 -23 68 -23c4 0 12 5 12 12c28 28 -7 68 -4 112c1 24 2 40 7 48c13 25 32 38 57 38c31 0 45 -27 38 -56c-3 -11 -12 -28 -29 -53c-21 -31 -58 -66 -47 -87c-3 -7 3 -14 6 -14
c20 0 48 10 80 23c27 11 46 17 59 17c31 0 47 -21 40 -52z" />
    <glyph glyph-name="germandbls" unicode="&#xdf;" horiz-adv-x="490" 
d="M-7 27h59c12 44 28 110 47 187c24 95 51 207 67 279c24 100 85 173 189 173c83 0 154 -36 154 -125c0 -94 -81 -147 -161 -171v-2c84 -7 126 -62 126 -149c0 -126 -89 -236 -222 -236c-29 0 -63 20 -63 49s19 57 48 57c13 0 23 -4 29 -12c5 -7 6 -18 3 -33
c-3 -11 -16 -18 -17 -25s4 -10 16 -10c85 0 116 160 116 228c0 55 -14 108 -68 111c-13 1 -40 -2 -81 -23l-2 32c29 8 54 17 75 25c76 31 125 88 125 168c0 76 -52 87 -76 87c-51 0 -93 -43 -114 -124c-29 -109 -68 -271 -100 -404c-9 -39 -18 -78 -25 -109l-66 1l-67 -1z
" />
    <glyph glyph-name="registered" unicode="&#xae;" horiz-adv-x="761" 
d="M701 325c0 -182 -140 -328 -321 -328c-168 0 -320 133 -320 327c0 188 146 326 320 326c185 0 321 -149 321 -325zM673 325c0 161 -127 295 -291 295c-165 0 -294 -133 -294 -296c0 -168 131 -298 292 -298c165 0 293 134 293 299zM418 330c41 -11 69 -22 85 -68
c8 -27 7 -56 7 -84c0 -21 8 -50 31 -50c5 0 18 6 25 14l14 -15c-13 -15 -31 -19 -47 -19c-51 0 -87 40 -90 92c-1 11 -1 23 -1 35s-1 24 -4 36c-7 25 -30 47 -82 47h-24c0 -15 -1 -34 -1 -49c0 -47 1 -86 0 -133h61v-24h-177v24h53c0 56 1 100 1 157c0 69 1 150 1 222h-55
v24c32 0 60 -1 87 -1c28 1 56 2 85 2c61 0 133 -27 133 -102c0 -65 -46 -96 -102 -108zM389 513c-9 2 -19 3 -28 3s-19 -1 -29 -2l-1 -83l1 -87h22c8 0 16 0 23 1c56 4 75 39 75 88c0 43 -20 72 -63 80z" />
    <glyph glyph-name="copyright" unicode="&#xa9;" horiz-adv-x="761" 
d="M701 325c0 -182 -139 -328 -321 -328c-167 0 -320 133 -320 327c0 188 147 326 320 326c187 0 321 -149 321 -325zM673 324c0 162 -127 296 -291 296c-165 0 -294 -133 -294 -296c0 -168 132 -298 293 -298c165 0 292 134 292 298zM508 92c-5 37 -21 22 -40 11
c-23 -12 -52 -20 -91 -20c-126 0 -201 102 -201 227c0 120 89 227 212 227c47 0 76 -14 95 -27c17 -12 21 -9 25 19h20v-159h-21c0 31 -2 67 -21 94c-21 31 -61 47 -97 47c-101 0 -135 -121 -135 -205c0 -92 27 -195 130 -195c47 0 75 22 88 37c28 31 35 80 36 116h21v-172
h-21z" />
    <glyph glyph-name="section" unicode="&#xa7;" horiz-adv-x="461" 
d="M487 543c0 28 -13 103 -137 103c-116 0 -219 -116 -219 -223c0 -23 5 -43 15 -59c-49 -41 -89 -110 -89 -175c0 -76 57 -110 121 -134c46 -16 125 -32 125 -102c0 -84 -98 -156 -181 -156c-59 0 -99 23 -99 62c0 20 23 13 42 24c8 5 22 13 22 32c0 27 -16 40 -39 40
c-38 0 -64 -39 -64 -67c0 -33 6 -120 141 -120c132 0 239 129 239 253c0 19 -3 34 -8 45c49 46 83 126 83 187c0 88 -75 118 -159 144c-45 13 -87 28 -87 75c0 81 75 144 151 144c24 0 92 -7 84 -39c-5 -21 -36 -17 -36 -47c0 -29 13 -44 40 -44c29 0 55 22 55 57zM377 184
c0 -33 -18 -65 -39 -89c-29 32 -79 46 -134 65c-44 15 -85 38 -85 78c0 37 17 78 44 103c23 -23 55 -37 90 -49c47 -16 124 -36 124 -108z" />
    <glyph glyph-name="notequal" unicode="&#x2260;" horiz-adv-x="504" 
 />
    <glyph glyph-name="degree" unicode="&#xb0;" horiz-adv-x="336" 
d="M298 523c0 -80 -67 -130 -130 -130c-68 0 -132 54 -132 131c0 81 71 130 132 130c65 0 130 -54 130 -131zM258 524c0 57 -49 88 -89 88s-91 -29 -91 -88c0 -48 37 -90 89 -90c51 0 91 39 91 90z" />
    <glyph glyph-name="periodcentered" unicode="&#xb7;" horiz-adv-x="239" 
d="M115 312c0 -28 22 -50 50 -50s50 22 50 50s-22 50 -50 50s-50 -22 -50 -50z" />
    <glyph glyph-name="periodcentered" unicode="&#x22c5;" horiz-adv-x="239" 
d="M115 312c0 -28 22 -50 50 -50s50 22 50 50s-22 50 -50 50s-50 -22 -50 -50z" />
    <glyph glyph-name="greaterequal" unicode="&#x2265;" horiz-adv-x="504" 
 />
    <glyph glyph-name="yen" unicode="&#xa5;" horiz-adv-x="610" 
d="M713 620h-16c-42 0 -69 -8 -106 -55l-149 -182l118 -3l-8 -28l-133 3l-35 -42l-11 -41l160 -3l-7 -26l-159 3c-11 -39 -21 -80 -28 -112c-15 -59 -21 -86 -24 -105l106 -1l-7 -28c-92 0 -123 2 -155 2h-33h-45h-72l9 29l105 -2c5 21 24 85 40 152c5 23 10 44 15 65
l-161 2l6 26l161 -2l8 36c-4 13 -9 28 -14 47l-135 2l7 28l121 -2c-21 77 -50 173 -74 237l-72 1l8 30c74 -2 99 -3 125 -3c28 0 56 2 140 2l-8 -31l-87 1c11 -37 27 -108 43 -160c15 -51 24 -80 35 -109l170 215c23 29 27 54 -17 54h-26l7 30l98 -3l108 3z" />
    <glyph glyph-name="approxequal" unicode="&#x2248;" horiz-adv-x="504" 
 />
    <glyph glyph-name="guillemotleft" unicode="&#xab;" horiz-adv-x="437" 
d="M326 34h48l-72 150l146 154h-48l-181 -148l-2 -8zM176 34h48l-72 150l146 154h-48l-181 -148l-2 -8z" />
    <glyph glyph-name="guillemotright" unicode="&#xbb;" horiz-adv-x="437" 
d="M228 34l182 148l2 8l-109 148h-48l71 -154l-145 -150h47zM78 34l182 148l2 8l-109 148h-48l71 -154l-145 -150h47z" />
    <glyph glyph-name="ellipsis" unicode="&#x2026;" horiz-adv-x="763" 
d="M49 42c0 -28 22 -50 50 -50s50 22 50 50s-22 50 -50 50s-50 -22 -50 -50zM307 42c0 -28 22 -50 50 -50s50 22 50 50s-22 50 -50 50s-50 -22 -50 -50zM561 42c0 -28 22 -50 50 -50s50 22 50 50s-22 50 -50 50s-50 -22 -50 -50z" />
    <glyph glyph-name="oe" unicode="&#x153;" horiz-adv-x="679" 
d="M346 296c0 -92 -43 -281 -154 -281c-45 0 -75 39 -75 84c0 88 51 280 158 280c51 0 71 -32 71 -83zM503 17c-66 0 -88 49 -88 109c0 31 2 43 9 66c185 0 249 67 249 130c0 48 -41 82 -96 82c-64 0 -123 -29 -167 -76c-23 47 -65 78 -128 78c-131 0 -242 -136 -242 -271
c0 -68 45 -148 156 -148c57 0 110 32 153 77c24 -48 71 -78 135 -78c69 0 133 51 168 107l-17 11c-29 -45 -76 -87 -132 -87zM430 218c16 56 45 159 129 159c24 0 43 -18 43 -42c0 -56 -55 -117 -172 -117z" />
    <glyph glyph-name="endash" unicode="&#x2013;" horiz-adv-x="490" 
d="M448 189l15 56c-93 0 -299 -3 -392 0l-15 -56c19 1 46 1 81 1h109c76 0 155 -1 202 -1z" />
    <glyph glyph-name="quotedblleft" unicode="&#x201c;" horiz-adv-x="371" 
d="M276 637l-13 18c-57 -32 -135 -95 -135 -165c0 -32 22 -62 62 -62c32 0 55 29 55 60c0 19 -10 36 -33 36c-8 0 -11 -1 -19 -8c-7 -7 -21 -5 -17 11c8 33 36 63 100 110zM429 637l-13 18c-57 -32 -135 -95 -135 -165c0 -32 22 -62 62 -62c32 0 55 29 55 60
c0 19 -10 36 -33 36c-8 0 -11 -1 -19 -8c-7 -7 -21 -5 -17 11c8 33 36 63 100 110z" />
    <glyph glyph-name="quotedblright" unicode="&#x201d;" horiz-adv-x="371" 
d="M281 446l14 -18c56 32 134 96 134 165c0 32 -22 62 -62 62c-32 0 -54 -29 -54 -60c0 -19 9 -36 32 -36c8 0 12 1 19 8c8 7 21 5 17 -12c-7 -32 -35 -62 -100 -109zM128 446l14 -18c56 32 134 96 134 165c0 32 -22 62 -62 62c-32 0 -54 -29 -54 -60c0 -19 9 -36 32 -36
c8 0 12 1 19 8c8 7 21 5 17 -12c-7 -32 -35 -62 -100 -109z" />
    <glyph glyph-name="quoteleft" unicode="&#x2018;" horiz-adv-x="227" 
d="M276 637l-13 18c-57 -32 -135 -95 -135 -165c0 -32 22 -62 62 -62c32 0 55 29 55 60c0 19 -10 36 -33 36c-8 0 -11 -1 -19 -8c-7 -7 -21 -5 -17 11c8 33 36 63 100 110z" />
    <glyph glyph-name="quoteright" unicode="&#x2019;" horiz-adv-x="227" 
d="M128 446l14 -18c56 32 134 96 134 165c0 32 -22 62 -62 62c-32 0 -54 -29 -54 -60c0 -19 9 -36 32 -36c8 0 12 1 19 8c8 7 21 5 17 -12c-7 -32 -35 -62 -100 -109z" />
    <glyph glyph-name="mu" unicode="&#xb5;" horiz-adv-x="498" 
d="M486 96c-37 -71 -70 -110 -130 -110c-70 0 -62 57 -59 93l-2 1c-16 -27 -40 -50 -67 -67c-57 -36 -102 -26 -115 -13c-7 -31 -20 -73 -25 -98c-11 -40 -21 -83 -26 -111l68 1l-8 -27c-113 0 -80 8 -205 0l6 25l65 1c13 58 18 97 34 155c13 49 30 118 42 170
c9 36 19 80 26 109c5 24 30 106 35 130h-18h-13c-5 0 -14 0 -29 1l5 23c77 3 106 15 138 26l4 -3c-7 -23 -10 -47 -17 -70c-8 -25 -22 -81 -30 -109c-7 -28 -16 -68 -25 -104c-5 -23 -25 -95 32 -95c70 0 138 112 162 205c3 12 10 40 17 67c5 23 11 48 15 69c3 11 4 17 7 26
h75c-13 -45 -20 -80 -31 -121c-12 -48 -22 -97 -33 -148c-3 -16 -7 -31 -10 -43c-1 -7 -4 -21 -4 -34c0 -12 3 -23 14 -23c31 0 63 45 82 83z" />
    <glyph glyph-name="mu" unicode="&#x3bc;" horiz-adv-x="498" 
d="M486 96c-37 -71 -70 -110 -130 -110c-70 0 -62 57 -59 93l-2 1c-16 -27 -40 -50 -67 -67c-57 -36 -102 -26 -115 -13c-7 -31 -20 -73 -25 -98c-11 -40 -21 -83 -26 -111l68 1l-8 -27c-113 0 -80 8 -205 0l6 25l65 1c13 58 18 97 34 155c13 49 30 118 42 170
c9 36 19 80 26 109c5 24 30 106 35 130h-18h-13c-5 0 -14 0 -29 1l5 23c77 3 106 15 138 26l4 -3c-7 -23 -10 -47 -17 -70c-8 -25 -22 -81 -30 -109c-7 -28 -16 -68 -25 -104c-5 -23 -25 -95 32 -95c70 0 138 112 162 205c3 12 10 40 17 67c5 23 11 48 15 69c3 11 4 17 7 26
h75c-13 -45 -20 -80 -31 -121c-12 -48 -22 -97 -33 -148c-3 -16 -7 -31 -10 -43c-1 -7 -4 -21 -4 -34c0 -12 3 -23 14 -23c31 0 63 45 82 83z" />
    <glyph glyph-name="pi" unicode="&#x3c0;" horiz-adv-x="513" 
d="M524 363l6 29c-35 -1 -59 0 -92 -1l-141 -3l-97 3c-16 0 -46 1 -75 1c-28 0 -58 1 -75 1l-8 -29l94 -1c-25 -101 -43 -211 -66 -312c-8 -35 -17 -41 -32 -26c-7 7 -17 26 -30 26c-23 0 -35 -15 -35 -27c0 -23 13 -35 40 -35c91 0 137 104 148 156c13 58 24 105 39 166
c7 23 9 37 12 48h110l47 -1c-7 -23 -16 -63 -21 -84c-22 -78 -36 -139 -46 -177c-5 -24 -30 -108 43 -108c72 0 115 49 154 148l-20 7c-21 -56 -63 -122 -93 -122c-13 0 -16 11 -16 23c0 13 5 27 6 34c5 23 12 52 20 89c8 28 38 149 49 193z" />
    <glyph glyph-name="emdash" unicode="&#x2014;" horiz-adv-x="980" 
d="M937 189l15 56c-105 0 -275 -2 -444 -2h-167c-107 0 -203 1 -270 2l-15 -56c32 1 71 1 117 1h484c109 0 209 -1 280 -1z" />
    <glyph glyph-name=".null" horiz-adv-x="0" 
 />
    <glyph glyph-name="CR" 
 />
    <glyph glyph-name="onesuperior" unicode="&#xb9;" horiz-adv-x="593" 
d="M514 781c5 52 -34 89 -80 89c-41 0 -93 -33 -98 -89c-5 -53 36 -89 80 -89c43 0 93 36 98 89zM486 781c-3 -35 -33 -61 -68 -61s-57 29 -53 61c5 41 40 60 67 60s58 -21 54 -60zM535 0l9 30l-64 -1c-11 90 -24 259 -40 412c-8 83 -15 155 -22 220h-33
c-28 -53 -75 -139 -123 -227c-83 -150 -175 -312 -226 -405l-67 1l-8 -29h48h31h23h22c17 0 41 -1 81 -1l7 28l-88 1c11 23 29 53 49 89c19 36 39 76 54 103h172c3 -33 7 -73 10 -104c3 -43 5 -69 6 -88l-78 -1l-8 -28c53 0 84 1 105 1h27h26c19 0 43 -1 87 -1zM359 249
h-157c19 35 42 74 69 123c26 47 56 103 72 133c1 -39 6 -79 9 -126c3 -51 4 -105 7 -130z" />
    <glyph glyph-name="twosuperior" unicode="&#xb2;" horiz-adv-x="613" 
d="M290 -53l44 40c43 4 81 13 112 28c28 14 67 43 62 -15h24c7 27 11 57 19 90c13 56 21 90 34 137h-24c-11 -40 -28 -96 -89 -149c-24 -21 -78 -61 -149 -61c-108 0 -142 86 -142 181c0 155 87 432 268 432c56 0 110 -25 131 -72c16 -36 11 -83 4 -118h24c8 33 10 42 18 79
c12 48 26 100 34 131h-24c-15 -40 -23 -49 -50 -28c-23 19 -70 39 -141 39c-221 0 -372 -232 -369 -435c0 -132 73 -235 218 -240l-82 -73l4 -12c15 7 39 13 54 13c27 0 53 -20 45 -49c-8 -33 -41 -52 -70 -52c-32 0 -28 21 -57 21c-11 0 -22 -7 -25 -19
c-5 -27 38 -31 55 -31c53 0 127 33 143 94c11 48 -24 74 -71 69z" />
    <glyph glyph-name="threesuperior" unicode="&#xb3;" horiz-adv-x="686" 
d="M530 695c-38 0 -64 31 -101 31c-31 0 -44 -9 -65 -36l-14 9c24 37 65 81 100 81c40 0 65 -29 103 -29c37 0 47 7 66 34l13 -10c-19 -41 -69 -80 -102 -80zM784 620h-24c-52 0 -79 -10 -100 -94c-35 -139 -99 -389 -129 -526h-39c-29 72 -64 163 -108 272
c-25 64 -42 118 -67 182c-19 46 -45 103 -58 137c-12 -45 -26 -113 -41 -169c-29 -117 -57 -227 -74 -298c-5 -21 -7 -37 -7 -50c0 -39 22 -45 61 -45h26l-8 -29l-125 2l-108 -2l8 29h22c41 0 63 6 81 45c18 37 18 55 39 140c20 81 50 205 76 309c9 36 15 61 18 75
c4 15 -3 22 -22 22c-18 0 -41 0 -70 1l8 29c40 -1 74 -2 106 -2c33 0 64 1 99 2c28 -76 49 -131 72 -194c20 -51 40 -109 63 -165c16 -43 35 -88 54 -137c27 105 90 372 90 372c5 21 8 37 8 49c0 39 -20 45 -60 45h-23l8 30l117 -3l115 3z" />
    <glyph glyph-name="dieresistonos" unicode="&#x385;" horiz-adv-x="423" 
d="M263 461l107 109c21 21 31 39 28 52c-3 17 -19 26 -36 19c-15 -5 -26 -22 -41 -45l-74 -123zM159 531c0 -27 20 -47 47 -47s47 20 47 47s-20 47 -47 47s-47 -20 -47 -47zM378 531c0 -27 20 -47 47 -47s47 20 47 47s-20 47 -47 47s-47 -20 -47 -47z" />
    <glyph glyph-name="tonos" unicode="&#x384;" horiz-adv-x="441" 
d="M298 461l107 109c19 20 31 37 28 52c-3 17 -20 26 -36 19c-15 -5 -26 -22 -41 -45l-74 -123z" />
    <glyph glyph-name="onehalf" unicode="&#xbd;" horiz-adv-x="612" 
d="M567 620l-435 -620h-39l437 620h37zM545 46c-7 -21 -12 -40 -17 -55c-39 3 -75 4 -111 4c-39 0 -79 0 -122 -3l-1 16c40 37 81 70 124 103c47 37 94 79 107 134c2 9 3 17 3 25c0 25 -13 46 -41 46c-39 0 -69 -23 -76 -36c-7 -9 -3 -10 1 -10c7 -3 15 0 20 -4
c9 -5 13 -14 10 -27c-5 -20 -24 -33 -40 -33c-35 0 -39 23 -32 46c16 62 78 89 131 89c63 0 109 -45 80 -114c-24 -60 -88 -95 -139 -133c-7 -4 -23 -16 -40 -29c-11 -8 -22 -15 -31 -22h81c15 1 36 -2 51 5c13 7 24 19 43 58h22c-11 -19 -16 -39 -23 -60zM91 294l6 24h53
c13 48 41 157 57 223c5 21 11 50 15 69l-58 -8l1 18c30 5 84 18 111 26l8 -8c-13 -56 -37 -149 -55 -225c-11 -39 -16 -70 -23 -95h48l-6 -24h-157z" />
    <glyph glyph-name="brokenbar" unicode="&#xa6;" horiz-adv-x="474" 
d="M375 496c-40 0 -65 31 -101 31c-31 0 -45 -9 -66 -36l-13 9c21 37 64 81 99 81c41 0 66 -29 103 -29s48 7 67 34l13 -10c-22 -41 -67 -80 -102 -80zM448 247c0 -115 -109 -260 -232 -260c-111 0 -156 80 -156 148c0 135 111 271 242 271c94 0 146 -74 146 -159zM366 296
c0 51 -20 83 -71 83c-107 0 -158 -192 -158 -280c0 -45 30 -84 75 -84c111 0 154 189 154 281z" />
    <glyph glyph-name="sfthyphen" unicode="&#xad;" horiz-adv-x="348" 
d="M309 212l15 61c-13 -1 -36 0 -69 0h-22h-16h-17h-26h-21h-30c-21 0 -42 1 -51 1l-15 -62c23 0 57 1 94 1h58h58c16 0 27 -1 42 -1z" />
    <glyph glyph-name="Gamma" unicode="&#x393;" horiz-adv-x="517" 
d="M215 183c7 29 18 71 31 124c23 91 42 168 49 197c5 26 12 50 28 115l68 1c89 1 144 -11 165 -50c7 -12 10 -26 10 -42c0 -15 -1 -33 -2 -54h25l21 101c5 25 11 51 19 79c-51 -3 -113 -3 -174 -4c-29 -1 -57 -1 -85 -1h-84c-23 -1 -47 -1 -70 -1s-46 1 -69 2l-7 -27l93 -3
c-4 -19 -11 -40 -16 -61c-17 -65 -34 -138 -49 -198c-37 -149 -64 -264 -80 -332l-93 -2l-7 -27c100 0 191 3 291 0l7 31l-107 -2c21 85 12 47 36 154z" />
    <glyph glyph-name="Delta" unicode="&#x394;" horiz-adv-x="531" 
d="M233 2l254 -2l4 18c-7 52 -16 105 -27 165c-27 165 -54 354 -68 478h-38c-42 -80 -120 -206 -194 -325c-74 -125 -151 -245 -194 -317l-4 -19zM390 29h-40h-37c-25 0 -55 1 -100 1c-44 0 -103 -1 -188 -1c36 61 95 153 158 253c49 80 97 163 136 223
c11 -99 29 -192 45 -295c9 -60 19 -118 26 -181z" />
    <glyph glyph-name="Theta" unicode="&#x398;" horiz-adv-x="652" 
d="M648 324c-43 -171 -195 -339 -364 -339c-168 0 -242 168 -199 339c42 172 195 337 364 337c168 0 239 -165 199 -337zM533 314c-48 -1 -107 3 -168 3c-61 -1 -122 -4 -171 -3c-40 -174 -16 -295 112 -295c109 0 195 134 227 295zM200 348c65 -1 145 -3 214 -3
c49 1 93 2 128 3c34 159 11 281 -112 281c-111 0 -188 -122 -230 -281z" />
    <glyph glyph-name="Lambda" unicode="&#x39b;" horiz-adv-x="593" 
d="M539 0l7 27l-66 2c-4 36 -10 77 -15 132c-8 84 -16 187 -25 280c-8 83 -15 155 -22 220h-33c-28 -53 -75 -139 -123 -227c-83 -150 -175 -312 -226 -405l-67 -1l-8 -28c40 3 63 3 79 3c34 0 46 -3 126 -3l10 30l-91 -1c11 23 28 53 48 89c45 85 91 169 138 254
c26 47 56 103 72 133c1 -39 6 -79 9 -126c5 -87 11 -174 18 -262c3 -43 5 -69 6 -88l-79 -2l-8 -27c49 3 79 3 102 3c45 0 61 -3 148 -3z" />
    <glyph glyph-name="Xi" unicode="&#x39e;" horiz-adv-x="625" 
d="M648 479h-20c-3 96 7 93 -105 93h-218c-116 0 -103 -2 -151 -93h-20c26 52 41 137 55 175c81 -5 133 -7 215 -7h58c81 0 136 2 218 7c-5 -38 -35 -119 -32 -175zM494 220h-20c-5 92 10 93 -108 93h-28c-117 0 -104 -1 -153 -93h-20c20 39 28 91 41 131c7 36 20 75 19 112
h19c5 -91 -9 -88 109 -88h28c117 0 104 -3 152 88h20c-19 -37 -26 -76 -37 -112c-8 -40 -23 -92 -22 -131zM586 185c-27 -51 -54 -151 -67 -188c-79 5 -133 8 -214 8h-58c-81 0 -136 -3 -219 -8c5 38 25 137 25 188h19c5 -107 -3 -106 113 -106h218c115 0 106 -1 162 106h21
z" />
    <glyph glyph-name="Pi" unicode="&#x3a0;" horiz-adv-x="724" 
d="M658 0c-49 1 -97 2 -143 2c-45 0 -93 -1 -142 -2l8 28l105 1c37 141 77 305 116 466c11 43 17 80 28 121c-64 1 -100 2 -127 2h-34h-33c-24 0 -56 -1 -115 -2c-29 -110 -70 -282 -107 -430c-15 -59 -26 -112 -37 -157l107 3l-9 -32c-100 0 -187 3 -287 0l9 28l91 1
c29 109 68 266 102 409c15 65 30 126 42 182l-92 2l9 30c85 -1 208 -5 336 -5c85 0 170 2 243 2c32 1 62 2 89 2l-7 -30l-93 -1c-12 -48 -29 -117 -48 -193c-35 -139 -75 -300 -96 -398l93 -1z" />
    <glyph glyph-name="Sigma" unicode="&#x3a3;" horiz-adv-x="568" 
d="M533 207c-12 -35 -25 -70 -38 -113c-11 -31 -22 -71 -26 -87c-3 -15 -16 -8 -65 -7l-171 3h-85c-64 0 -78 -2 -131 -6l-11 15c43 51 95 114 155 190c32 41 71 94 98 129c-12 47 -27 105 -46 166c-15 49 -33 103 -45 136l16 16l208 -1c31 0 64 1 96 1c33 1 65 3 98 4
c-11 -53 -25 -152 -33 -205h-28l4 40c13 124 -32 131 -146 131h-112c7 -19 11 -42 18 -62c7 -25 14 -45 21 -69c17 -56 35 -106 51 -157l-58 -72l-121 -157l-56 -71h205c99 0 132 61 167 152l10 24h25z" />
    <glyph glyph-name="Iotadieresis" unicode="&#x3aa;" horiz-adv-x="329" 
d="M265 0l8 27l-96 2c9 36 23 96 38 155c12 49 23 94 32 130l75 306l94 -2l8 32c-96 -4 -185 -3 -277 0l-7 -28l92 -2c-21 -88 -41 -174 -61 -259c-16 -65 -35 -139 -48 -191c-15 -59 -26 -106 -35 -141l-92 2l-8 -31c93 3 184 0 277 0zM162 744c0 -27 20 -47 47 -47
s47 20 47 47s-20 47 -47 47s-47 -20 -47 -47zM324 744c0 -27 20 -47 47 -47s47 20 47 47s-20 47 -47 47s-47 -20 -47 -47z" />
    <glyph glyph-name="Alpha" unicode="&#x391;" horiz-adv-x="593" 
d="M535 0l9 30l-64 -1c-11 90 -24 259 -40 412c-8 83 -15 155 -22 220h-33c-28 -53 -75 -139 -123 -227c-83 -150 -175 -312 -226 -405l-67 1l-8 -29h48h31h23h22c17 0 41 -1 81 -1l7 28l-88 1c11 23 29 53 49 89c19 36 39 76 54 103h172c3 -33 7 -73 10 -104
c3 -43 5 -69 6 -88l-78 -1l-8 -28c53 0 84 1 105 1h27h26c19 0 43 -1 87 -1zM359 249h-157c19 35 42 74 69 123c26 47 56 103 72 133c1 -39 6 -79 9 -126c3 -51 4 -105 7 -130z" />
    <glyph glyph-name="Beta" unicode="&#x392;" horiz-adv-x="572" 
d="M239 0c-31 0 -70 1 -117 1c-43 0 -85 -1 -126 -1l7 28l83 1c19 83 41 177 69 294c23 91 50 197 74 297h-82l8 27c15 1 32 1 50 1s41 1 69 2c55 2 109 3 162 3c77 0 150 -41 150 -121c0 -119 -88 -169 -182 -185l-1 -4c52 -5 140 -53 140 -133c0 -151 -144 -210 -304 -210
zM496 520c0 77 -58 102 -114 102c-3 0 -29 -1 -48 -2h-14c-1 0 -3 -9 -8 -28c-11 -52 -40 -164 -56 -238h51c100 5 189 56 189 166zM442 201c0 67 -42 104 -93 116c-29 7 -66 6 -101 6c-24 -100 -46 -193 -71 -293c19 0 39 2 59 2c106 0 206 60 206 169z" />
    <glyph glyph-name="Epsilon" unicode="&#x395;" horiz-adv-x="572" 
d="M552 193c-21 -69 -42 -124 -59 -195c-124 8 -244 3 -368 3c-52 1 -99 1 -130 -2l8 28l85 2c15 59 36 154 65 271c19 76 36 151 55 224c8 32 18 69 25 96l-86 1l7 29c23 -1 46 -2 68 -2c23 0 46 0 69 1c113 1 223 -2 338 5c-17 -60 -27 -120 -40 -180h-25c3 41 1 80 -8 96
c-21 39 -76 51 -165 50l-68 -1c-35 -134 -21 -93 -65 -265h31c88 0 107 33 134 116h24c-13 -43 -24 -85 -35 -128c-12 -47 -22 -90 -31 -137h-25c11 88 24 120 -72 120h-34l-21 -94l-50 -202h102c136 0 201 31 244 164h27z" />
    <glyph glyph-name="Zeta" unicode="&#x396;" horiz-adv-x="572" 
d="M533 193c-11 -37 -18 -59 -30 -96c-5 -17 -13 -46 -22 -97c-69 0 -152 2 -235 2s-166 -1 -237 -6l-6 10c52 64 132 162 224 275c93 115 198 245 275 338h-92h-35c-37 0 -82 -1 -114 -15c-36 -16 -55 -44 -82 -99c-5 -14 -6 -13 -14 -29h-27c19 53 41 119 57 174
c17 -1 34 -1 51 -1h50c47 -1 92 -2 139 -2l186 2l5 -9c-81 -96 -179 -218 -283 -347c-78 -97 -165 -202 -210 -263h79h35h41c28 0 56 1 79 4c56 8 86 29 118 101c11 24 13 34 22 58h26z" />
    <glyph glyph-name="Eta" unicode="&#x397;" horiz-adv-x="724" 
d="M658 0c-91 2 -182 2 -275 0l8 28l96 1c11 40 22 84 35 137c12 51 26 108 34 148c-103 -2 -206 -2 -309 0c-8 -36 -19 -81 -31 -130c-15 -59 -30 -119 -38 -155l95 3l-7 -30h-139c-46 0 -92 -1 -139 -2l7 27l93 2c9 35 20 82 35 141c13 52 32 126 48 191
c21 85 41 171 62 259l-93 2l7 28c93 -2 185 -2 278 0l-8 -32l-95 2c-11 -43 -23 -90 -34 -137c-13 -52 -24 -100 -32 -135c49 0 98 -1 147 0c55 0 107 1 162 0c9 35 21 82 33 130c12 51 24 102 33 142l-97 1l9 29c91 -2 182 -2 274 0l-7 -31l-92 1c-9 -32 -15 -67 -24 -104
c-13 -56 -29 -116 -44 -180c-27 -109 -58 -223 -77 -307l93 1z" />
    <glyph glyph-name="Iota" unicode="&#x399;" horiz-adv-x="329" 
d="M265 0l8 27l-96 2c9 36 23 96 38 155c12 49 23 94 32 130l75 306l94 -2l8 32c-93 -2 -186 -2 -277 0l-7 -28l92 -2c-21 -88 -41 -174 -61 -259c-16 -65 -35 -139 -48 -191c-15 -59 -26 -106 -35 -141l-92 2l-8 -31c93 3 184 0 277 0z" />
    <glyph glyph-name="Kappa" unicode="&#x39a;" horiz-adv-x="667" 
d="M618 0c-20 1 -43 1 -69 1h-76c-49 0 -98 -1 -123 -1h-20l8 29h85l-176 290l-65 -290l90 2l-7 -31c-25 1 -53 1 -85 1h-90c-28 0 -62 0 -101 -1l9 28l90 1c19 73 42 182 73 307c21 85 46 178 66 262c3 7 5 15 6 22h-93l9 30c93 0 185 -3 280 0l-7 -30h-95l-76 -284
c20 18 87 77 147 129c41 36 72 62 116 101c40 35 31 54 -4 54h-38l7 30c74 -2 93 -3 113 -3s41 1 113 3l-7 -30h-12c-29 0 -76 -1 -123 -43l-236 -211l211 -337h87z" />
    <glyph glyph-name="Mu" unicode="&#x39c;" horiz-adv-x="780" 
d="M713 0c-82 0 -111 2 -139 2c-16 0 -36 -1 -68 -1c-15 0 -36 0 -61 -1l7 27l89 2l37 148c20 76 43 162 62 242c15 61 31 139 46 200c-40 -68 -281 -476 -360 -619h-19c-4 68 -12 153 -19 264c-4 67 -8 142 -12 210c-4 57 -8 104 -11 144c-20 -80 -50 -205 -75 -308
c-17 -71 -29 -118 -46 -186c-5 -21 -8 -37 -8 -50c0 -39 24 -45 62 -45h25l-7 -29c-86 0 -90 3 -131 3c-20 0 -49 0 -102 -3l8 29h22c41 0 63 6 81 45c12 25 15 42 23 75c19 83 84 334 117 471l-94 1l9 29c40 -1 64 -2 80 -2h23c21 0 44 2 106 2c3 -79 5 -140 10 -212
c7 -92 15 -191 22 -275c91 157 182 311 281 487c56 0 75 -2 95 -2h23c17 0 41 1 82 2l-8 -29l-88 -1c-7 -27 -13 -59 -20 -84c-27 -109 -46 -191 -65 -266c-19 -74 -31 -127 -60 -241l92 3z" />
    <glyph glyph-name="Phi" unicode="&#x3a6;" horiz-adv-x="758" 
d="M391 29l7 28c179 21 366 137 366 334c0 133 -107 196 -233 209l5 20l90 -2l8 32l-142 -1l-135 1l-7 -27l93 -3l-4 -18c-168 -16 -363 -154 -363 -339c0 -131 110 -194 230 -207l-7 -27l-94 -2l-7 -27l137 2l140 -2l8 30zM657 405c0 -150 -95 -291 -251 -315
c3 11 7 26 10 39c9 43 26 107 45 182c16 65 33 138 46 186c5 20 11 52 16 71c97 -19 134 -84 134 -163zM324 125c-5 -16 -6 -20 -10 -35c-89 17 -135 75 -136 158c0 144 106 300 253 321c-3 -15 -8 -32 -11 -47c-7 -35 -13 -65 -24 -108c-9 -36 -21 -83 -30 -118
c-17 -71 -31 -130 -42 -171z" />
    <glyph glyph-name="Upsilondieresis" unicode="&#x3ab;" horiz-adv-x="611" 
d="M718 620h-22c-42 0 -69 -8 -106 -55l-207 -252c-11 -40 -32 -124 -45 -179c-15 -59 -21 -86 -24 -105l106 1l-7 -30c-125 0 -135 3 -184 3c-24 0 -58 0 -121 -3l7 27l107 2c5 21 24 85 40 152c11 44 20 87 29 127c-22 70 -60 224 -95 312l-78 2l7 30c85 -2 118 -3 144 -3
h29c21 0 49 1 98 1l-9 -28l-85 -2c19 -78 57 -210 78 -269l170 215c23 29 27 54 -17 54h-26l7 30l116 -3l96 3zM328 744c0 27 20 47 47 47s47 -20 47 -47s-20 -47 -47 -47s-47 20 -47 47zM490 744c0 27 20 47 47 47s47 -20 47 -47s-20 -47 -47 -47s-47 20 -47 47z" />
    <glyph glyph-name="Psi" unicode="&#x3a8;" horiz-adv-x="713" 
d="M744 620h77l7 30c-24 -1 -54 -2 -82 -2c-47 0 -80 8 -87 -16c-5 -23 -14 -66 -26 -111l-18 -68c-8 -38 -10 -46 -21 -83c-27 -101 -69 -177 -186 -188l11 47c24 116 56 237 67 277l28 114h83l7 30l-125 -3l-133 3l-7 -30h83c-19 -76 -32 -140 -48 -200
c-11 -48 -15 -55 -28 -111c-5 -27 -26 -108 -31 -127c-112 11 -116 87 -92 188c8 37 11 46 19 83l16 68c11 45 21 82 32 129c-33 -1 -61 -2 -84 -2c-28 0 -57 1 -81 2l-7 -30h77l-40 -170c-32 -130 -38 -160 -15 -215c27 -64 96 -85 167 -88c-11 -32 -24 -92 -29 -118h-100
l-7 -29c43 1 79 1 110 1h96c34 0 63 0 88 -1l7 29h-102l30 118c72 3 152 24 211 88c49 54 58 84 90 215z" />
    <glyph glyph-name="Omega" unicode="&#x3a9;" horiz-adv-x="664" 
d="M630 166h-21c-47 -87 -61 -87 -159 -87h-13c133 64 241 199 241 352c0 141 -99 230 -227 230c-180 0 -370 -202 -370 -379c0 -93 41 -163 109 -203h-20c-97 0 -113 0 -118 87h-19c0 -55 -15 -131 -20 -169c68 4 157 5 234 6l18 76c-57 17 -82 67 -82 131
c0 146 92 420 262 420c100 0 123 -106 123 -163c0 -135 -65 -358 -215 -390l-18 -74c80 -1 168 -2 231 -6c14 38 37 116 64 169z" />
    <glyph glyph-name="alphatonos" unicode="&#x3ac;" horiz-adv-x="504" 
d="M377 -12c-45 0 -73 22 -70 53c-35 -33 -73 -53 -118 -53c-106 0 -157 102 -133 204c24 104 119 214 227 214c39 0 71 -13 92 -40c3 13 3 14 6 25c9 -3 22 -1 35 -1c19 0 35 1 42 1l-21 -84c-11 -47 -21 -92 -32 -139c-8 -37 -14 -66 -19 -89c-3 -13 -12 -57 20 -57
c25 0 51 33 74 73c3 5 8 16 11 21l19 -9c-3 -4 -6 -15 -9 -19c-35 -67 -73 -100 -124 -100zM329 170l23 97c15 65 -17 109 -61 109c-92 0 -135 -120 -149 -174c-8 -40 -39 -185 54 -185c69 0 110 57 121 106c4 16 9 32 12 47zM387 570l-107 -109l-16 12l74 123
c15 23 26 40 41 45c16 7 33 -2 36 -19c3 -15 -9 -32 -28 -52z" />
    <glyph glyph-name="Nu" unicode="&#x39d;" horiz-adv-x="686" 
d="M784 620h-24c-52 0 -79 -10 -100 -94c-35 -139 -99 -389 -129 -526h-39c-29 72 -64 163 -108 272c-25 64 -42 118 -67 182c-19 46 -45 103 -58 137c-12 -45 -26 -113 -41 -169c-29 -117 -57 -227 -74 -298c-5 -21 -7 -37 -7 -50c0 -39 22 -45 61 -45h26l-8 -29l-125 2
l-108 -2l8 29h22c41 0 63 6 81 45c18 37 18 55 39 140c20 81 50 205 76 309c9 36 15 61 18 75c4 15 -3 22 -22 22c-18 0 -41 0 -70 1l8 29c40 -1 74 -2 106 -2c33 0 64 1 99 2c28 -76 49 -131 72 -194c20 -51 40 -109 63 -165c16 -43 35 -88 54 -137c27 105 90 372 90 372
c5 21 8 37 8 49c0 39 -20 45 -60 45h-23l8 30l117 -3l115 3z" />
    <glyph glyph-name="Omicron" unicode="&#x39f;" horiz-adv-x="652" 
d="M284 -15c-136 0 -211 111 -211 244c0 195 168 432 376 432c136 0 210 -107 210 -239c0 -195 -169 -437 -375 -437zM556 472c0 95 -37 157 -125 157c-177 0 -255 -305 -255 -453c0 -88 35 -157 126 -157c172 0 254 301 254 453z" />
    <glyph glyph-name="Rho" unicode="&#x3a1;" horiz-adv-x="517" 
d="M306 294c-23 0 -43 3 -62 10c-8 -35 -24 -93 -32 -130c-13 -57 -21 -94 -36 -145l89 2l-9 -31c-25 1 -52 1 -82 1h-85c-26 0 -57 0 -93 -1l6 27l84 2c16 56 20 74 41 162c15 59 34 134 58 231c16 63 36 147 47 198h-85l8 30c120 -3 107 -2 233 3c100 5 199 -41 199 -138
c0 -146 -140 -221 -281 -221zM486 500c0 72 -49 122 -122 122h-20c-7 0 -14 -1 -23 -2c-12 -47 -26 -102 -33 -130c-11 -51 -30 -127 -38 -162c15 -3 28 -5 43 -5c112 0 193 80 193 177z" />
    <glyph glyph-name="Tau" unicode="&#x3a4;" horiz-adv-x="593" 
d="M655 442h-24l7 34c11 51 14 102 -57 128c-35 12 -68 12 -116 12l-145 -587h107l-7 -29c-103 2 -207 2 -312 0l7 29h108l144 587c-48 0 -84 0 -124 -12c-82 -26 -106 -76 -120 -128l-9 -34h-24l34 123c11 40 13 45 18 85c30 0 107 -2 196 -2h92c57 0 115 1 163 1
c49 0 88 1 111 1c-13 -40 -15 -45 -23 -85z" />
    <glyph glyph-name="Upsilon" unicode="&#x3a5;" horiz-adv-x="611" 
d="M718 620h-22c-42 0 -69 -8 -106 -55l-207 -252c-11 -40 -32 -124 -45 -179c-15 -59 -21 -86 -24 -105l106 1l-7 -30c-125 0 -135 3 -184 3c-24 0 -58 0 -121 -3l7 27l107 2c5 21 24 85 40 152c11 44 20 87 29 127c-13 43 -31 109 -52 180c-15 47 -28 97 -43 132l-78 2
l7 30c85 -2 118 -3 144 -3h29c21 0 49 1 98 1l-9 -28l-85 -2c11 -41 26 -106 42 -159c15 -47 25 -82 36 -110l170 215c23 29 27 54 -17 54h-26l7 30l116 -3l96 3z" />
    <glyph glyph-name="Chi" unicode="&#x3a7;" horiz-adv-x="611" 
d="M556 0l7 28l-73 1c-9 24 -18 48 -30 85c-24 72 -53 172 -74 244c37 46 130 154 178 207c35 41 62 55 105 55h29l8 30l-121 -2l-101 2l-7 -30h12c51 0 71 -15 38 -54c-136 -160 -110 -127 -150 -175c-7 20 -14 46 -25 79c-16 50 -33 113 -44 150l90 -1l8 31
c-92 0 -179 -3 -275 0l-6 -27l81 -3c19 -61 40 -128 59 -189c13 -44 24 -82 37 -127c-35 -46 -141 -166 -189 -219c-36 -43 -69 -56 -112 -56h-23l-7 -29l120 2l101 -2l7 30h-11c-51 0 -73 15 -38 54c136 160 122 140 162 188l54 -180l18 -63l-90 1l-8 -30c59 3 91 3 114 3
c45 0 53 -3 156 -3z" />
    <glyph glyph-name="Alphatonos" unicode="&#x386;" horiz-adv-x="593" 
d="M535 0l9 30l-64 -1c-11 90 -24 259 -40 412c-8 83 -15 155 -22 220h-33c-28 -53 -75 -139 -123 -227c-83 -150 -175 -312 -226 -405l-67 1l-8 -29h48h31h23h22c17 0 41 -1 81 -1l7 28l-88 1c11 23 29 53 49 89c19 36 39 76 54 103h172c3 -33 7 -73 10 -104
c3 -43 5 -69 6 -88l-78 -1l-8 -28c53 0 84 1 105 1h27h26c19 0 43 -1 87 -1zM359 249h-157c19 35 42 74 69 123c26 47 56 103 72 133c1 -39 6 -79 9 -126c3 -51 4 -105 7 -130zM70 461l107 109c19 20 31 37 28 52c-3 17 -20 26 -36 19c-15 -5 -26 -22 -41 -45l-74 -123z" />
    <glyph glyph-name="Epsilontonos" unicode="&#x388;" horiz-adv-x="572" 
d="M552 193c-21 -69 -42 -124 -59 -195c-124 8 -244 3 -368 3c-52 1 -99 1 -130 -2l8 28l85 2c15 59 36 154 65 271c19 76 36 151 55 224c8 32 18 69 25 96l-86 1l7 29c23 -1 46 -2 68 -2c23 0 46 0 69 1c113 1 223 -2 338 5c-17 -60 -27 -120 -40 -180h-25c3 41 1 80 -8 96
c-21 39 -76 51 -165 50l-68 -1c-35 -134 -21 -93 -65 -265h31c88 0 107 33 134 116h24c-13 -43 -24 -85 -35 -128c-12 -47 -22 -90 -31 -137h-25c11 88 24 120 -72 120h-34l-21 -94l-50 -202h102c136 0 201 31 244 164h27zM87 570l-107 -109l-16 12l74 123
c15 23 26 40 41 45c16 7 33 -2 36 -19c3 -15 -9 -32 -28 -52z" />
    <glyph glyph-name="afii00208" unicode="&#x2015;" horiz-adv-x="980" 
d="M937 189l15 56c-105 0 -275 -2 -444 -2h-167c-107 0 -203 1 -270 2l-15 -56c32 1 71 1 117 1h484c109 0 209 -1 280 -1z" />
    <glyph glyph-name="Etatonos" unicode="&#x389;" horiz-adv-x="724" 
d="M658 0c-91 2 -182 2 -275 0l8 28l96 1c11 40 22 84 35 137c12 51 26 108 34 148c-103 -2 -206 -2 -309 0c-8 -36 -19 -81 -31 -130c-15 -59 -30 -119 -38 -155l95 3l-7 -30h-139c-46 0 -92 -1 -139 -2l7 27l93 2c9 35 20 82 35 141c13 52 32 126 48 191
c21 85 41 171 62 259l-93 2l7 28c93 -2 185 -2 278 0l-8 -32l-95 2c-11 -43 -23 -90 -34 -137c-13 -52 -24 -100 -32 -135c49 0 98 -1 147 0c55 0 107 1 162 0c9 35 21 82 33 130c12 51 24 102 33 142l-97 1l9 29c91 -2 182 -2 274 0l-7 -31l-92 1c-9 -32 -15 -67 -24 -104
c-13 -56 -29 -116 -44 -180c-27 -109 -58 -223 -77 -307l93 1zM77 570l-107 -109l-16 12l74 123c15 23 26 40 41 45c16 7 33 -2 36 -19c3 -15 -9 -32 -28 -52z" />
    <glyph glyph-name="Iotatonos" unicode="&#x38a;" horiz-adv-x="329" 
d="M265 0l8 27l-96 2c9 36 23 96 38 155c12 49 23 94 32 130l75 306l94 -2l8 32c-93 -2 -186 -2 -277 0l-7 -28l92 -2c-21 -88 -41 -174 -61 -259c-16 -65 -35 -139 -48 -191c-15 -59 -26 -106 -35 -141l-92 2l-8 -31c93 3 184 0 277 0zM-30 461l107 109c19 20 31 37 28 52
c-3 17 -20 26 -36 19c-15 -5 -26 -22 -41 -45l-74 -123z" />
    <glyph glyph-name="Omicrontonos" unicode="&#x38c;" horiz-adv-x="652" 
d="M284 -15c-136 0 -211 111 -211 244c0 195 168 432 376 432c136 0 210 -107 210 -239c0 -195 -169 -437 -375 -437zM556 472c0 95 -37 157 -125 157c-177 0 -255 -305 -255 -453c0 -88 35 -157 126 -157c172 0 254 301 254 453zM97 570l-107 -109l-16 12l74 123
c15 23 26 40 41 45c16 7 33 -2 36 -19c3 -15 -9 -32 -28 -52z" />
    <glyph glyph-name="Upsilontonos" unicode="&#x38e;" horiz-adv-x="611" 
d="M718 620h-22c-42 0 -69 -8 -106 -55l-207 -252c-11 -40 -32 -124 -45 -179c-15 -59 -21 -86 -24 -105l106 1l-7 -30c-125 0 -135 3 -184 3c-24 0 -58 0 -121 -3l7 27l107 2c5 21 24 85 40 152c11 44 20 87 29 127c-13 43 -31 109 -52 180c-15 47 -28 97 -43 132l-78 2
l7 30c85 -2 118 -3 144 -3h29c21 0 49 1 98 1l-9 -28l-85 -2c11 -41 26 -106 42 -159c15 -47 25 -82 36 -110l170 215c23 29 27 54 -17 54h-26l7 30l116 -3l96 3zM67 570l-107 -109l-16 12l74 123c15 23 26 40 41 45c16 7 33 -2 36 -19c3 -15 -9 -32 -28 -52z" />
    <glyph glyph-name="epsilontonos" unicode="&#x3ad;" horiz-adv-x="387" 
d="M392 321c0 -31 -15 -55 -48 -55c-23 0 -38 14 -38 29c0 12 5 31 12 38c11 9 11 24 2 31c-15 11 -29 14 -48 14c-50 0 -115 -40 -115 -96s60 -60 146 -65l-8 -30c-10 3 -24 5 -42 5c-55 0 -132 -28 -132 -104c0 -44 34 -73 74 -73c64 0 107 32 152 83l15 -14
c-53 -68 -117 -99 -189 -99c-60 0 -140 27 -140 101c0 62 56 114 117 122v2c-36 7 -62 35 -62 75c0 80 101 120 172 120c55 0 132 -21 132 -84zM369 570l-107 -109l-16 12l74 123c15 23 26 40 41 45c16 7 33 -2 36 -19c3 -15 -9 -32 -28 -52z" />
    <glyph glyph-name="etatonos" unicode="&#x3ae;" horiz-adv-x="514" 
d="M525 137c-39 -97 -79 -148 -154 -148c-72 0 -71 63 -58 108c5 19 10 45 17 73s20 68 29 104c8 30 18 95 -32 95c-69 0 -137 -112 -161 -205c-3 -12 -10 -40 -17 -67c-5 -23 -11 -48 -15 -69c-3 -11 -3 -19 -6 -28h-76c11 43 20 82 31 123c12 51 22 101 34 153
c7 25 14 56 19 83h-13h-8h-13c-5 0 -14 0 -26 1l6 22c77 3 105 16 137 27l5 -3c-8 -31 -14 -60 -21 -91l2 -1c32 54 100 92 146 92c51 0 88 -18 89 -83c1 -12 -1 -26 -4 -41c-8 -37 -22 -83 -29 -114c-9 -37 -16 -66 -20 -89c-3 -13 -12 -57 20 -57c35 0 77 66 98 122z
M370 570l-107 -109l-16 12l74 123c15 23 26 40 41 45c16 7 33 -2 36 -19c3 -15 -9 -32 -28 -52z" />
    <glyph glyph-name="iotatonos" unicode="&#x3af;" horiz-adv-x="274" 
d="M281 137l-20 7c-24 -56 -63 -122 -98 -122c-32 0 -22 44 -19 57c4 23 9 52 18 89c9 41 21 84 33 128c11 40 19 81 27 110l-5 3c-32 -11 -64 -24 -141 -27l-6 -22c12 -1 21 -1 26 -1h13h9h13c-4 -20 -11 -46 -16 -71c-9 -40 -20 -81 -29 -118c-7 -28 -12 -54 -17 -73
c-13 -45 -14 -108 58 -108c74 0 112 50 154 148zM175 461l107 109c19 20 31 37 28 52c-3 17 -20 26 -36 19c-15 -5 -26 -22 -41 -45l-74 -123z" />
    <glyph glyph-name="omicrontonos" unicode="&#x3cc;" horiz-adv-x="450" 
d="M428 247c0 85 -52 159 -146 159c-131 0 -242 -136 -242 -271c0 -68 45 -148 156 -148c123 0 232 145 232 260zM346 296c0 -92 -43 -281 -154 -281c-45 0 -75 39 -75 84c0 88 51 280 158 280c51 0 71 -32 71 -83zM298 461l107 109c19 20 31 37 28 52c-3 17 -20 26 -36 19
c-15 -5 -26 -22 -41 -45l-74 -123z" />
    <glyph glyph-name="Omegatonos" unicode="&#x38f;" horiz-adv-x="664" 
d="M630 166h-21c-47 -87 -61 -87 -159 -87h-13c133 64 241 199 241 352c0 141 -99 230 -227 230c-180 0 -370 -202 -370 -379c0 -93 41 -163 109 -203h-20c-97 0 -113 0 -118 87h-19c0 -55 -15 -131 -20 -169c68 4 157 5 234 6l18 76c-57 17 -82 67 -82 131
c0 146 92 420 262 420c100 0 123 -106 123 -163c0 -135 -65 -358 -215 -390l-18 -74c80 -1 168 -2 231 -6c14 38 37 116 64 169zM0 461l107 109c19 20 31 37 28 52c-3 17 -20 26 -36 19c-15 -5 -26 -22 -41 -45l-74 -123z" />
    <glyph glyph-name="upsilontonos" unicode="&#x3cd;" horiz-adv-x="405" 
d="M167 -12c164 0 235 256 235 347c0 43 -16 71 -47 71c-19 0 -36 -15 -36 -35c0 -46 50 -31 50 -71c0 -74 -73 -272 -172 -272c-56 0 -51 46 -43 79l60 219c16 59 -19 79 -51 79c-85 0 -122 -90 -146 -147l24 -8c10 34 54 119 85 119c15 0 16 -13 11 -33
c-3 -12 -14 -49 -62 -223c-13 -47 -14 -125 92 -125zM258 461l107 109c19 20 31 37 28 52c-3 17 -20 26 -36 19c-15 -5 -26 -22 -41 -45l-74 -123z" />
    <glyph glyph-name="alpha" unicode="&#x3b1;" horiz-adv-x="504" 
d="M377 -12c-45 0 -73 22 -70 53c-35 -33 -73 -53 -118 -53c-106 0 -157 102 -133 204c24 104 119 214 227 214c39 0 71 -13 92 -40c3 13 3 14 6 25c9 -3 22 -1 35 -1c19 0 35 1 42 1l-21 -84c-11 -47 -21 -92 -32 -139c-8 -37 -14 -66 -19 -89c-3 -13 -12 -57 20 -57
c25 0 51 33 74 73c3 5 8 16 11 21l19 -9c-3 -4 -6 -15 -9 -19c-35 -67 -73 -100 -124 -100zM329 170l23 97c15 65 -17 109 -61 109c-92 0 -135 -120 -149 -174c-8 -40 -39 -185 54 -185c69 0 110 57 121 106c4 16 9 32 12 47z" />
    <glyph glyph-name="beta" unicode="&#x3b2;" horiz-adv-x="450" 
d="M129 481c-9 -39 -21 -87 -30 -126c-19 -87 -38 -170 -55 -241c-15 -60 -20 -96 -31 -135c-18 -76 -22 -124 -41 -202c19 -4 38 -3 65 0l10 10c0 7 24 122 50 249c16 -35 66 -46 94 -46c125 0 228 115 228 238c0 65 -24 127 -108 146l1 3c84 23 143 82 143 173
c0 64 -47 111 -135 111c-92 0 -170 -87 -191 -180zM336 263c0 -87 -46 -245 -149 -245c-99 0 -64 129 -51 184l70 296c6 25 32 134 116 134c40 0 57 -33 57 -72c0 -99 -76 -164 -166 -193l3 -29c22 12 43 17 62 15c44 -3 58 -48 58 -90z" />
    <glyph glyph-name="psi" unicode="&#x3c8;" horiz-adv-x="553" 
d="M305 16c131 16 204 209 204 284c0 40 -50 25 -50 71c0 20 17 35 36 35c31 0 47 -28 47 -71c0 -91 -51 -327 -243 -347c-24 -101 -38 -153 -46 -197l64 -1l-6 -25c-113 0 -93 8 -207 0l8 27l62 -1c13 42 31 131 47 197c-108 8 -155 71 -132 166l51 182c7 20 4 33 -11 33
c-31 0 -75 -85 -85 -119l-24 8c24 57 61 147 146 147c32 0 63 -20 47 -79l-51 -184c-21 -76 28 -115 68 -123l40 172c16 69 40 164 43 181c7 25 13 51 17 71h-12h-5h-10c-5 0 -13 0 -25 1l5 22c78 3 101 16 133 27l4 -3c-7 -29 -16 -70 -27 -110c-5 -19 -28 -116 -46 -189z
" />
    <glyph glyph-name="delta" unicode="&#x3b4;" horiz-adv-x="449" 
d="M454 595c0 59 -64 66 -101 66c-80 0 -177 -64 -177 -154c0 -48 39 -79 66 -106c-107 -24 -201 -144 -201 -254c0 -89 52 -161 144 -161c138 0 245 148 245 277c0 45 -12 86 -51 125l-63 62c-41 41 -61 72 -61 94c0 58 46 93 97 93c17 0 36 -4 35 -19c0 -3 0 -5 -1 -6
c-3 -7 -6 -16 -7 -23c-1 -17 9 -33 32 -33c21 0 43 14 43 39zM341 239c0 -84 -57 -228 -155 -228c-53 0 -65 48 -65 98c0 84 47 261 142 269l51 -53c23 -23 27 -51 27 -86z" />
    <glyph glyph-name="epsilon" unicode="&#x3b5;" horiz-adv-x="387" 
d="M392 321c0 -31 -15 -55 -48 -55c-23 0 -38 14 -38 29c0 12 5 31 12 38c11 9 11 24 2 31c-15 11 -29 14 -48 14c-50 0 -115 -40 -115 -96s60 -60 146 -65l-8 -30c-10 3 -24 5 -42 5c-55 0 -132 -28 -132 -104c0 -44 34 -73 74 -73c64 0 107 32 152 83l15 -14
c-53 -68 -117 -99 -189 -99c-60 0 -140 27 -140 101c0 62 56 114 117 122v2c-36 7 -62 35 -62 75c0 80 101 120 172 120c55 0 132 -21 132 -84z" />
    <glyph glyph-name="phi" unicode="&#x3c6;" horiz-adv-x="554" 
d="M267 403l1 -26c-92 -12 -145 -168 -145 -252c0 -48 17 -106 82 -111l66 271c17 72 61 120 121 120c96 0 138 -92 138 -168c0 -134 -121 -247 -255 -250c-29 -135 -45 -202 -48 -209l-10 -10c-27 -4 -53 -5 -72 0c15 76 35 141 54 218c-96 5 -158 66 -158 159
c0 127 89 247 226 258zM446 259c0 54 -12 117 -57 117c-17 0 -30 -22 -40 -67l-67 -295c118 11 164 144 164 245z" />
    <glyph glyph-name="gamma" unicode="&#x3b3;" horiz-adv-x="429" 
d="M472 366c0 25 -23 40 -46 40c-17 0 -32 -10 -47 -31c-17 -27 -35 -67 -47 -96c-8 -16 -68 -156 -68 -158c0 69 -10 285 -110 285c-71 0 -110 -106 -131 -161l26 -9c7 15 18 46 31 73c15 28 29 51 48 51c35 0 63 -140 63 -280c0 -103 -31 -234 -58 -312c19 -5 45 -4 72 0
l10 10c24 62 45 204 48 274c27 62 44 101 71 165c23 51 40 88 51 109c9 17 12 18 16 18c8 -1 13 -19 28 -19c32 0 43 25 43 41z" />
    <glyph glyph-name="eta" unicode="&#x3b7;" horiz-adv-x="514" 
d="M525 137c-39 -97 -79 -148 -154 -148c-72 0 -71 63 -58 108c5 19 10 45 17 73s20 68 29 104c8 30 18 95 -32 95c-69 0 -137 -112 -161 -205c-3 -12 -10 -40 -17 -67c-5 -23 -11 -48 -15 -69c-3 -11 -3 -19 -6 -28h-76c11 43 20 82 31 123c12 51 22 101 34 153
c7 25 14 56 19 83h-13h-8h-13c-5 0 -14 0 -26 1l6 22c77 3 105 16 137 27l5 -3c-8 -31 -14 -60 -21 -91l2 -1c32 54 100 92 146 92c51 0 88 -18 89 -83c1 -12 -1 -26 -4 -41c-8 -37 -22 -83 -29 -114c-9 -37 -16 -66 -20 -89c-3 -13 -12 -57 20 -57c35 0 77 66 98 122z" />
    <glyph glyph-name="iota" unicode="&#x3b9;" horiz-adv-x="274" 
d="M281 137l-20 7c-24 -56 -63 -122 -98 -122c-32 0 -22 44 -19 57c4 23 9 52 18 89c9 41 21 84 33 128c11 40 19 81 27 110l-5 3c-32 -11 -64 -24 -141 -27l-6 -22c12 -1 21 -1 26 -1h13h9h13c-4 -20 -11 -46 -16 -71c-9 -40 -20 -81 -29 -118c-7 -28 -12 -54 -17 -73
c-13 -45 -14 -108 58 -108c74 0 112 50 154 148z" />
    <glyph glyph-name="xi" unicode="&#x3be;" horiz-adv-x="302" 
d="M433 656c0 9 -2 20 -14 20c-18 -2 -31 -24 -62 -25c-17 -3 -35 -4 -46 -4c-57 0 -109 10 -164 29l-68 -130l27 -9l36 61c41 -15 103 -25 147 -18c-1 0 -43 -23 -85 -61c-35 -31 -56 -69 -56 -102c0 -23 9 -44 32 -63c-61 -21 -101 -68 -101 -132c0 -19 3 -38 9 -58
c21 -64 71 -182 71 -242c0 -43 -26 -84 -86 -84c-15 0 -53 5 -50 21c0 1 1 3 2 7c7 12 12 19 13 34c3 23 -16 39 -37 39c-27 0 -43 -25 -43 -48c0 -22 25 -79 116 -79c100 0 158 74 158 165c0 69 -72 201 -72 253c0 39 8 79 45 100c29 17 70 19 118 12l9 27
c-64 0 -112 7 -112 48c0 61 112 155 163 187c13 8 50 34 50 52z" />
    <glyph glyph-name="kappa" unicode="&#x3ba;" horiz-adv-x="451" 
d="M315 306c-15 -27 -36 -55 -71 -68c7 -1 13 -3 20 -4c44 -13 73 -36 73 -77c0 -35 -15 -69 -15 -101c0 -15 4 -28 23 -28c28 0 72 89 83 116l21 -7c-29 -72 -74 -148 -144 -148c-39 0 -67 21 -67 62c0 30 25 81 25 119c0 52 -61 53 -98 53l-5 -21
c-20 -87 -38 -158 -47 -202h-75c18 69 27 102 40 168c7 31 17 80 26 119c7 25 12 51 15 71h-17h-13c-5 0 -15 0 -30 1l5 22c78 3 108 17 139 27l5 -3c-7 -28 -13 -63 -24 -103c-4 -16 -5 -27 -13 -52c47 -1 75 11 91 30c21 23 33 52 48 79c19 32 44 51 81 51
c29 0 53 -15 53 -55c0 -31 -20 -48 -44 -48c-23 0 -36 10 -36 27c0 15 3 12 6 27c1 7 -2 11 -10 11c-7 0 -14 -5 -19 -15c-8 -16 -22 -43 -26 -51z" />
    <glyph glyph-name="lambda" unicode="&#x3bb;" horiz-adv-x="431" 
d="M323 0l122 496c22 86 -18 168 -126 168c-64 0 -141 -47 -146 -113c-3 -23 7 -47 32 -50c29 -3 47 16 50 40c1 13 -3 25 -15 29c-26 5 -13 27 -3 37c16 19 52 29 76 29c52 0 85 -39 64 -126l-59 -228c-9 57 -46 96 -106 96c-66 0 -131 -39 -147 -140
c-15 -84 -23 -171 -39 -255c-11 -64 -21 -128 -77 -128c-17 0 -34 10 -25 27c7 12 12 20 13 35c3 23 -16 40 -37 40c-27 0 -43 -26 -43 -50c0 -14 12 -78 96 -78c109 0 145 146 161 241c8 56 17 112 28 168c8 45 31 106 84 106c58 0 85 -87 61 -184l-39 -160h75z" />
    <glyph glyph-name="nu" unicode="&#x3bd;" horiz-adv-x="408" 
d="M284 129c59 51 122 127 122 207c0 37 -16 70 -52 70c-29 0 -54 -19 -54 -47c0 -15 7 -25 15 -32c28 -17 32 -11 32 -40c0 -21 -9 -46 -27 -75c-11 -19 -27 -36 -44 -53c-31 -31 -66 -59 -93 -79c-3 19 -8 40 -19 65c-17 43 -30 77 -30 121c0 56 37 94 76 130l-17 15
c-59 -37 -138 -113 -138 -186c0 -28 13 -58 22 -85l20 -52c12 -32 26 -56 7 -91l23 -10c15 25 48 55 73 74c29 23 56 45 84 68z" />
    <glyph glyph-name="omicron" unicode="&#x3bf;" horiz-adv-x="450" 
d="M428 247c0 85 -52 159 -146 159c-131 0 -242 -136 -242 -271c0 -68 45 -148 156 -148c123 0 232 145 232 260zM346 296c0 -92 -43 -281 -154 -281c-45 0 -75 39 -75 84c0 88 51 280 158 280c51 0 71 -32 71 -83z" />
    <glyph glyph-name="omegatonos" unicode="&#x3ce;" horiz-adv-x="634" 
d="M465 570l-107 -109l-16 12l74 123c15 23 26 40 41 45c16 7 33 -2 36 -19c3 -15 -9 -32 -28 -52zM361 144c-7 -33 -23 -65 -42 -86c12 -25 40 -40 65 -40c113 0 156 171 156 257c0 56 -23 96 -86 103l5 27c97 -7 154 -72 154 -159c0 -121 -110 -260 -235 -260
c-28 0 -64 18 -80 47c-1 -1 -3 -2 -4 -3c-32 -27 -72 -44 -116 -44c-84 0 -136 84 -136 172c0 123 121 242 256 247l-7 -27c-124 -5 -173 -187 -173 -283c0 -44 29 -80 70 -80c76 0 96 115 109 171c7 25 17 67 21 87h-11h-4h-8c-4 0 -12 0 -24 1l5 22c78 3 90 16 123 27
l4 -3c-7 -21 -12 -50 -19 -77c-5 -20 -9 -43 -13 -59c-4 -19 -7 -29 -10 -40z" />
    <glyph glyph-name="rho" unicode="&#x3c1;" horiz-adv-x="448" 
d="M427 247c0 -115 -105 -260 -221 -260c-43 0 -83 16 -100 59c-8 -37 -18 -94 -18 -122c0 -41 7 -123 62 -123c37 0 78 30 106 65l18 -13c-34 -47 -90 -94 -151 -94c-95 0 -110 121 -110 169c0 151 72 478 275 478c89 0 139 -74 139 -159zM349 296c0 51 -19 83 -68 83
c-103 0 -150 -192 -150 -280c0 -45 28 -84 71 -84c107 0 147 189 147 281z" />
    <glyph glyph-name="sigma" unicode="&#x3c3;" horiz-adv-x="450" 
d="M341 285c0 -90 -42 -270 -151 -270c-44 0 -74 38 -74 82c0 87 50 269 155 269c51 0 70 -32 70 -81zM305 391c-9 1 -16 2 -27 2c-129 0 -237 -128 -237 -261c0 -65 44 -145 153 -145c120 0 227 137 227 250c0 49 -17 94 -50 123h25c17 0 12 -2 76 -2l2 36
c-58 0 -81 -3 -121 -3h-48z" />
    <glyph glyph-name="tau" unicode="&#x3c4;" horiz-adv-x="312" 
d="M336 360l11 35c-83 0 -198 -6 -296 -3l-7 -31h100c-16 -64 -39 -163 -47 -191c-7 -28 -13 -54 -18 -73c-11 -45 -15 -108 58 -108c75 0 111 51 154 148l-20 7c-24 -56 -63 -122 -98 -122c-31 0 -22 44 -19 57c5 23 11 52 19 89c8 28 31 128 47 192h116z" />
    <glyph glyph-name="theta" unicode="&#x3b8;" horiz-adv-x="444" 
d="M183 -14c179 4 280 311 280 467c0 112 -32 197 -124 197c-186 0 -283 -322 -283 -481c0 -95 26 -183 127 -183zM375 357c-21 0 -49 -1 -74 -1h-34h-26h-36c-10 0 -22 0 -36 1c22 97 77 268 165 268c45 0 63 -55 63 -103c0 -53 -11 -117 -22 -165zM268 327l100 1
c-20 -84 -75 -315 -185 -315c-49 0 -61 53 -61 101c0 72 22 146 41 214z" />
    <glyph glyph-name="omega" unicode="&#x3c9;" horiz-adv-x="634" 
d="M361 144c-7 -33 -23 -65 -42 -86c12 -25 40 -40 65 -40c113 0 156 171 156 257c0 56 -23 96 -86 103l5 27c97 -7 154 -72 154 -159c0 -121 -110 -260 -235 -260c-28 0 -64 18 -80 47c-1 -1 -3 -2 -4 -3c-32 -27 -72 -44 -116 -44c-84 0 -136 84 -136 172
c0 123 121 242 256 247l-7 -27c-124 -5 -173 -187 -173 -283c0 -44 29 -80 70 -80c76 0 96 115 109 171c7 25 17 67 21 87h-11h-4h-8c-4 0 -12 0 -24 1l5 22c78 3 90 16 123 27l4 -3c-7 -21 -12 -50 -19 -77c-5 -20 -9 -43 -13 -59c-4 -19 -7 -29 -10 -40z" />
    <glyph glyph-name="sigma1" unicode="&#x3c2;" horiz-adv-x="360" 
d="M310 266c-23 0 -36 21 -36 33c0 9 8 25 15 32c11 9 12 25 4 33c-15 12 -29 15 -49 15c-49 0 -114 -29 -114 -85c0 -31 29 -48 68 -68c41 -22 104 -50 104 -112c0 -88 -98 -127 -173 -127c-27 0 -58 9 -73 16l15 22c16 -7 36 -11 61 -11c35 0 96 19 96 63
c0 23 -24 39 -56 55c-47 24 -113 53 -113 114c0 99 92 159 188 159c53 0 113 -26 113 -86c0 -31 -15 -53 -50 -53z" />
    <glyph glyph-name="chi" unicode="&#x3c7;" horiz-adv-x="440" 
d="M42 253l25 -9c19 38 62 115 94 115c12 0 17 -17 25 -91c3 -31 4 -58 9 -86l-89 -107c-19 -23 -37 -34 -52 -19c-7 7 -15 15 -27 15c-23 0 -42 -12 -42 -41s18 -41 43 -41c41 0 68 40 92 67l78 91c3 -35 5 -68 9 -91c7 -40 20 -67 68 -67c64 0 122 90 149 157l-24 6
c-17 -36 -62 -121 -93 -121c-15 0 -19 13 -23 60c-3 21 -10 86 -13 135l77 97c15 19 30 17 41 13c7 -3 14 -5 22 -5c20 0 44 15 44 38s-18 37 -38 37c-23 0 -54 -28 -82 -59c-27 -29 -52 -60 -67 -79c-8 89 -25 138 -80 138c-58 0 -119 -94 -146 -153z" />
    <glyph glyph-name="upsilon" unicode="&#x3c5;" horiz-adv-x="405" 
d="M167 -12c164 0 235 256 235 347c0 43 -16 71 -47 71c-19 0 -36 -15 -36 -35c0 -46 50 -31 50 -71c0 -74 -73 -272 -172 -272c-56 0 -51 46 -43 79l60 219c16 59 -19 79 -51 79c-85 0 -122 -90 -146 -147l24 -8c10 34 54 119 85 119c15 0 16 -13 11 -33
c-3 -12 -14 -49 -62 -223c-13 -47 -14 -125 92 -125z" />
    <glyph glyph-name="zeta" unicode="&#x3b6;" horiz-adv-x="282" 
d="M449 656c0 9 -2 20 -14 20c-18 -2 -31 -24 -62 -25c-17 -3 -35 -4 -46 -4c-57 0 -119 10 -174 29l-68 -130l27 -9l36 61c30 -12 85 -20 130 -20c15 0 29 1 40 3c-155 -134 -240 -226 -240 -345c0 -48 12 -94 39 -150c27 -58 58 -123 58 -164c0 -48 -15 -84 -86 -84
c-15 0 -53 5 -50 21c0 1 1 3 2 7c7 12 12 19 13 34c3 23 -16 39 -37 39c-27 0 -43 -25 -43 -48c0 -22 25 -79 116 -79c100 0 163 74 163 165c0 37 -31 95 -55 146c-20 42 -30 82 -30 120c0 113 82 229 231 361c12 10 50 34 50 52z" />
    <glyph glyph-name="iotadieresis" unicode="&#x3ca;" horiz-adv-x="274" 
d="M281 137l-20 7c-24 -56 -63 -122 -98 -122c-32 0 -22 44 -19 57c4 23 9 52 18 89c9 41 21 84 33 128c11 40 19 81 27 110l-5 3c-32 -11 -64 -24 -141 -27l-6 -22c12 -1 21 -1 26 -1h13h9h13c-4 -20 -11 -46 -16 -71c-9 -40 -20 -81 -29 -118c-7 -28 -12 -54 -17 -73
c-13 -45 -14 -108 58 -108c74 0 112 50 154 148zM54 531c0 -27 20 -47 47 -47s47 20 47 47s-20 47 -47 47s-47 -20 -47 -47zM216 531c0 -27 20 -47 47 -47s47 20 47 47s-20 47 -47 47s-47 -20 -47 -47z" />
    <glyph glyph-name="upsilondieresis" unicode="&#x3cb;" horiz-adv-x="405" 
d="M167 -12c164 0 235 256 235 347c0 43 -16 71 -47 71c-19 0 -36 -15 -36 -35c0 -46 50 -31 50 -71c0 -74 -73 -272 -172 -272c-56 0 -51 46 -43 79l60 219c16 59 -19 79 -51 79c-85 0 -122 -90 -146 -147l24 -8c10 34 54 119 85 119c15 0 16 -13 11 -33
c-3 -12 -14 -49 -62 -223c-13 -47 -14 -125 92 -125zM157 531c0 -27 20 -47 47 -47s47 20 47 47s-20 47 -47 47s-47 -20 -47 -47zM319 531c0 -27 20 -47 47 -47s47 20 47 47s-20 47 -47 47s-47 -20 -47 -47z" />
    <glyph glyph-name="iotadieresistonos" unicode="&#x390;" horiz-adv-x="274" 
d="M281 137l-20 7c-24 -56 -63 -122 -98 -122c-32 0 -22 44 -19 57c4 23 9 52 18 89c9 41 21 84 33 128c11 40 19 81 27 110l-5 3c-32 -11 -64 -24 -141 -27l-6 -22c12 -1 21 -1 26 -1h13h9h13c-4 -20 -11 -46 -16 -71c-9 -40 -20 -81 -29 -118c-7 -28 -12 -54 -17 -73
c-13 -45 -14 -108 58 -108c74 0 112 50 154 148zM124 461l107 109c21 21 31 39 28 52c-3 17 -19 26 -36 19c-15 -5 -26 -22 -41 -45l-74 -123zM20 531c0 -27 20 -47 47 -47s47 20 47 47s-20 47 -47 47s-47 -20 -47 -47zM239 531c0 -27 20 -47 47 -47s47 20 47 47
s-20 47 -47 47s-47 -20 -47 -47z" />
    <glyph glyph-name="upsilondieresistonos" unicode="&#x3b0;" horiz-adv-x="405" 
d="M167 -12c164 0 235 256 235 347c0 43 -16 71 -47 71c-19 0 -36 -15 -36 -35c0 -46 50 -31 50 -71c0 -74 -73 -272 -172 -272c-56 0 -51 46 -43 79l60 219c16 59 -19 79 -51 79c-85 0 -122 -90 -146 -147l24 -8c10 34 54 119 85 119c15 0 16 -13 11 -33
c-3 -12 -14 -49 -62 -223c-13 -47 -14 -125 92 -125zM238 461l107 109c21 21 31 39 28 52c-3 17 -19 26 -36 19c-15 -5 -26 -22 -41 -45l-74 -123zM134 531c0 -27 20 -47 47 -47s47 20 47 47s-20 47 -47 47s-47 -20 -47 -47zM353 531c0 -27 20 -47 47 -47s47 20 47 47
s-20 47 -47 47s-47 -20 -47 -47z" />
    <glyph glyph-name="FL0127" unicode="&#xe000;" horiz-adv-x="255" 
 />
    <glyph glyph-name="Euro" unicode="&#x20ac;" horiz-adv-x="597" 
d="M349 -14c79 0 214 45 214 134c0 29 -18 55 -49 55c-28 0 -57 -20 -57 -55c0 -42 48 -17 42 -45c-11 -41 -105 -57 -135 -57c-137 0 -156 128 -137 263c48 1 102 2 151 2c51 0 98 -1 130 -2l8 27c-32 -1 -78 -2 -129 -2c-49 0 -105 1 -154 2l2 10c3 12 7 25 11 38
c53 1 102 2 146 2s89 -1 135 -2l7 27c-31 0 -79 -1 -131 -1h-78c-27 0 -51 0 -73 1c24 81 99 247 236 247c24 0 103 -10 95 -39c-3 -19 -42 -15 -42 -60c0 -21 23 -33 35 -33c39 0 64 31 64 71c0 33 -30 92 -145 92c-161 0 -291 -110 -352 -278l-64 1l-7 -27l64 -1
c-4 -11 -7 -22 -10 -33c-1 -3 -3 -8 -4 -15l-61 1l-8 -27l64 -1c-19 -171 59 -295 232 -295z" />
    </font>
</defs>
</svg>
